<svg width="222" height="351" viewBox="0 0 222 351" fill="none" xmlns="http://www.w3.org/2000/svg">
<g clip-path="url(#clip0_534_137)">
<rect x="222.004" y="0.60791" width="350" height="222" rx="16" transform="rotate(90 222.004 0.60791)" fill="#00252E"/>
<path opacity="0.53" d="M221.889 108.002L222.004 329.566C222.004 331.487 221.743 333.357 221.251 335.122L122.712 236.834C119.763 233.9 117.86 230.318 117.054 226.548C115.527 219.802 117.41 212.419 122.702 207.156L221.889 108.002Z" fill="url(#paint0_linear_534_137)"/>
<path opacity="0.53" d="M78.3142 255.587L174.5 351.524L19.1616 351.608C7.5842 351.618 -1.80742 342.241 -1.81788 330.691L-1.82834 305.994L48.5915 255.597C56.7804 247.389 70.1044 247.379 78.3142 255.587Z" fill="url(#paint1_linear_534_137)"/>
<path opacity="0.53" d="M0.0879789 169.217L30.3022 199.344C38.5225 207.531 38.533 220.836 30.3232 229.023L0.140273 259.192L0.0879789 169.217Z" fill="url(#paint2_linear_534_137)"/>
<path opacity="0.53" d="M19.9628 -1.2979L180.635 -1.38143C180.855 4.24723 178.826 9.95939 174.506 14.2618L46.9977 141.716C38.7984 149.924 25.4639 149.934 17.2541 141.737L-0.943498 123.587L-0.995793 19.6503C-0.995793 15.5254 0.206922 11.6512 2.2986 8.41391C6.01132 2.56595 12.5269 -1.2979 19.9628 -1.2979Z" fill="url(#paint3_linear_534_137)"/>
<path d="M29.5017 29.3039L29.5017 32.8048C29.5017 33.8995 29.8062 34.7232 30.8829 35.1892L46.2062 41.9092L46.2062 37.1402C46.2062 37.1402 44.1508 36.349 43.7158 36.1864L43.7158 30.3769C44.2922 30.236 46.2062 29.8241 46.2062 29.8241L46.2062 25.6079L29.5017 29.3039ZM40.2901 34.8858C39.333 34.5172 35.6028 33.1082 35.6028 33.1082C35.6028 33.1082 34.624 32.718 34.0259 32.4904L35.4614 32.187C35.4614 32.187 39.4418 31.309 40.2901 31.1356L40.2901 34.8858Z" fill="white"/>
<path d="M34.1455 47.9571C34.9176 47.9679 35.4397 46.9816 36.2118 45.3992C37.4081 42.7871 38.8436 41.5731 40.7577 41.6056C44.2269 41.6273 46.4673 44.7272 46.4673 49.4853C46.4455 51.523 46.0322 53.4739 45.5755 54.5361L41.8344 53.8967L42.0954 53.3222C42.7153 51.8373 42.9763 50.8618 42.9763 49.0518C42.9763 47.7511 42.4651 46.353 41.345 46.3313C40.6055 46.3204 40.0834 46.9274 39.2678 48.6833C38.4739 50.4175 37.1362 52.6936 34.7436 52.6611C31.5028 52.6394 29.219 49.4745 29.219 44.9981C29.219 43.2423 29.5887 41.8224 29.9259 40.9337L33.5365 41.5514L33.3516 41.9633C33.0145 42.8087 32.6991 43.8818 32.7099 45.3667C32.6991 47.1334 33.4495 47.9571 34.1455 47.9571Z" fill="white"/>
<path d="M29.5126 54.5578L46.2063 57.3867L46.2063 61.9172L42.9654 61.3645L37.6365 60.4649L29.5235 59.0992L29.5126 54.5578Z" fill="white"/>
<path d="M38.115 70.8375C34.2542 72.3549 31.046 75.975 29.7192 81.4485L29.3821 81.3943L29.3821 74.36C29.4256 73.4062 29.7192 72.6367 30.7415 72.3765L38.115 70.8375Z" fill="white"/>
<path d="M29.5344 60.9309L46.1954 68.0736L46.1954 72.8642L32.2749 76.9287C34.1564 74.0131 37.1362 71.5311 39.2025 70.6532L40.9317 70.1762L29.5344 65.7324L29.5344 60.9309Z" fill="white"/>
<path d="M28.1477 291.459L47.5059 291.448C49.7897 291.448 51.6602 293.313 51.6602 295.578L51.682 322.219C51.682 324.506 49.8114 326.37 47.5385 326.37L28.1804 326.392C25.8857 326.392 24.026 324.528 24.026 322.252L24.0042 295.6C24.0042 293.323 25.853 291.459 28.1477 291.459Z" fill="#F6C859"/>
<path d="M47.9844 312.92C47.9844 313.071 47.9083 313.212 47.7669 313.277C47.5711 313.375 47.321 313.299 47.2231 313.104C46.9186 312.518 46.3531 311.727 45.3852 311.261C44.1454 310.676 42.7969 310.828 42.6772 311.077C42.6446 311.142 42.7751 311.38 42.8512 311.532C43.047 311.912 43.3189 312.443 43.1014 313.05C42.8947 313.646 42.3618 313.938 42.1008 314.079C40.4152 315.001 36.0433 315.282 33.8682 314.318C33.1504 313.993 32.7154 313.559 32.5849 313.017C32.4544 312.464 32.6828 312.009 32.8785 311.651C33.0308 311.359 33.0961 311.207 33.0417 311.109C32.8133 310.73 31.4212 310.741 30.3228 311.272C29.3441 311.738 28.7785 312.529 28.4849 313.115C28.387 313.31 28.1369 313.396 27.9411 313.288C27.7454 313.19 27.6584 312.941 27.7671 312.746C28.126 312.052 28.8003 311.099 29.9857 310.546C31.1494 309.993 33.1613 309.733 33.7486 310.698C34.0422 311.185 33.8029 311.651 33.6181 312.02C33.4767 312.302 33.3353 312.573 33.4006 312.833C33.4876 313.19 33.89 313.429 34.2162 313.581C36.1194 314.426 40.252 314.177 41.7311 313.375C41.9812 313.234 42.2531 313.071 42.351 312.789C42.4489 312.518 42.3292 312.258 42.1443 311.901C41.9595 311.543 41.7637 311.153 41.9595 310.73C42.4053 309.82 44.352 309.885 45.7441 310.535C46.9295 311.099 47.6038 312.042 47.9627 312.735C47.9735 312.8 47.9844 312.865 47.9844 312.92Z" fill="#7D662D"/>
<path d="M34.5968 314.144L34.5968 321.417C34.5968 321.645 34.4119 321.818 34.1944 321.818C33.9769 321.818 33.7921 321.645 33.7921 321.428L33.7921 314.155C33.7921 313.928 33.9769 313.754 34.1944 313.754C34.4119 313.743 34.5968 313.917 34.5968 314.144Z" fill="#7D662D"/>
<path d="M41.9051 314.144L41.9051 321.417C41.9051 321.645 41.7202 321.818 41.5027 321.818C41.2743 321.818 41.1003 321.634 41.1003 321.417L41.1003 314.144C41.1003 313.917 41.2852 313.743 41.5027 313.743C41.7202 313.733 41.9051 313.917 41.9051 314.144Z" fill="#7D662D"/>
<path d="M47.9735 304.433C47.9735 304.498 47.9626 304.563 47.93 304.617C47.5711 305.311 46.8968 306.265 45.7114 306.818C44.3194 307.479 42.3727 307.533 41.9268 306.633C41.7202 306.211 41.9268 305.81 42.1008 305.463C42.2857 305.094 42.4053 304.834 42.3075 304.574C42.1987 304.271 41.8833 304.097 41.6876 303.989C40.2085 303.187 36.065 302.948 34.1727 303.794C33.8464 303.945 33.4332 304.184 33.357 304.541C33.3027 304.758 33.0852 304.899 32.8677 304.845C32.6501 304.791 32.5196 304.574 32.5631 304.357C32.6936 303.815 33.1178 303.382 33.8356 303.057C36.0106 302.081 40.3934 302.363 42.0682 303.284C42.3292 303.425 42.8621 303.718 43.0687 304.314C43.2862 304.921 43.0144 305.452 42.8186 305.831C42.7425 305.983 42.6228 306.221 42.6446 306.286C42.7642 306.525 44.1128 306.688 45.3525 306.091C46.3313 305.625 46.8968 304.834 47.1905 304.249C47.2884 304.054 47.5385 303.967 47.7343 304.075C47.8974 304.14 47.9735 304.281 47.9735 304.433Z" fill="#7D662D"/>
<path d="M32.9655 306.059C32.9655 306.232 32.8568 306.384 32.6937 306.438C30.0836 307.305 28.0716 305.278 27.7454 304.628C27.6366 304.433 27.7236 304.184 27.9194 304.086C28.1151 303.989 28.3653 304.064 28.4631 304.26C28.6154 304.552 30.2141 306.416 32.4326 305.679C32.6502 305.604 32.8785 305.723 32.9438 305.94C32.9655 305.972 32.9655 306.015 32.9655 306.059Z" fill="#7D662D"/>
<path d="M34.586 295.946L34.586 303.219C34.586 303.447 34.4011 303.62 34.1836 303.62C33.9661 303.62 33.7812 303.436 33.7812 303.219L33.7812 295.946C33.7812 295.719 33.9661 295.545 34.1836 295.545C34.4011 295.545 34.586 295.73 34.586 295.946Z" fill="#7D662D"/>
<path d="M41.8833 295.946L41.8833 303.219C41.8833 303.447 41.6984 303.62 41.4809 303.62C41.2526 303.62 41.0786 303.436 41.0786 303.219L41.0786 295.946C41.0786 295.719 41.2634 295.545 41.4809 295.545C41.7093 295.545 41.8833 295.719 41.8833 295.946Z" fill="#7D662D"/>
<path d="M103.933 319.319L105.7 319.319L105.596 321.836L107.614 320.374L108.555 321.951L106.286 323.194L108.555 324.436L107.614 325.982L105.596 324.551L105.711 327.037L103.943 327.037L104.079 324.551L102.029 325.992L101.088 324.447L103.357 323.204L101.088 321.961L102.029 320.385L104.079 321.847L103.933 319.319Z" fill="white"/>
<path d="M103.922 306.38L105.69 306.38L105.585 308.897L107.603 307.435L108.545 309.012L106.275 310.255L108.545 311.497L107.603 313.043L105.585 311.612L105.7 314.098L103.933 314.098L104.069 311.612L102.019 313.053L101.077 311.508L103.347 310.265L101.077 309.022L102.019 307.446L104.069 308.908L103.922 306.38Z" fill="white"/>
<path d="M103.922 293.432L105.69 293.432L105.585 295.938L107.604 294.476L108.545 296.053L106.275 297.295L108.545 298.538L107.604 300.084L105.585 298.653L105.7 301.138L103.933 301.138L104.069 298.653L102.019 300.094L101.077 298.549L103.347 297.306L101.077 296.063L102.019 294.486L104.069 295.948L103.922 293.432Z" fill="white"/>
<path d="M103.912 280.493L105.679 280.493L105.575 283.01L107.593 281.548L108.534 283.125L106.265 284.367L108.534 285.61L107.593 287.155L105.575 285.725L105.69 288.21L103.922 288.21L104.058 285.725L102.008 287.166L101.067 285.62L103.337 284.378L101.067 283.135L102.008 281.558L104.058 283.02L103.912 280.493Z" fill="white"/>
<path d="M103.901 258.574L105.669 258.574L105.564 261.091L107.583 259.629L108.524 261.205L106.254 262.448L108.524 263.691L107.583 265.236L105.564 263.806L105.679 266.291L103.912 266.291L104.048 263.806L101.998 265.247L101.057 263.701L103.326 262.459L101.057 261.216L101.998 259.639L104.048 261.101L103.901 258.574Z" fill="white"/>
<path d="M103.891 245.625L105.658 245.625L105.554 248.141L107.572 246.679L108.513 248.256L106.244 249.499L108.513 250.742L107.572 252.287L105.554 250.856L105.669 253.342L103.901 253.342L104.037 250.856L101.987 252.298L101.046 250.752L103.316 249.509L101.046 248.267L101.987 246.69L104.037 248.152L103.891 245.625Z" fill="white"/>
<path d="M103.891 232.686L105.658 232.686L105.554 235.203L107.572 233.741L108.513 235.318L106.244 236.561L108.513 237.803L107.572 239.349L105.554 237.918L105.669 240.404L103.901 240.404L104.037 237.918L101.987 239.359L101.046 237.814L103.316 236.571L101.046 235.328L101.987 233.752L104.037 235.214L103.891 232.686Z" fill="white"/>
<path d="M103.88 219.737L105.648 219.737L105.543 222.243L107.562 220.781L108.503 222.358L106.233 223.601L108.503 224.843L107.562 226.389L105.543 224.958L105.658 227.444L103.891 227.444L104.027 224.958L101.977 226.399L101.036 224.854L103.305 223.611L101.036 222.368L101.977 220.792L104.027 222.254L103.88 219.737Z" fill="white"/>
<path d="M103.87 197.828L105.637 197.828L105.533 200.345L107.551 198.883L108.492 200.46L106.223 201.702L108.492 202.945L107.551 204.491L105.533 203.06L105.648 205.545L103.88 205.545L104.016 203.06L101.966 204.501L101.025 202.956L103.295 201.713L101.025 200.47L101.966 198.893L104.016 200.355L103.87 197.828Z" fill="white"/>
<path d="M103.859 184.879L105.627 184.879L105.522 187.396L107.541 185.934L108.482 187.511L106.213 188.753L108.482 189.996L107.541 191.541L105.522 190.111L105.637 192.596L103.87 192.596L104.006 190.111L101.956 191.552L101.015 190.006L103.284 188.764L101.015 187.521L101.956 185.944L104.006 187.406L103.859 184.879Z" fill="white"/>
<path d="M103.849 171.93L105.616 171.93L105.512 174.447L107.53 172.985L108.472 174.562L106.202 175.804L108.472 177.047L107.53 178.592L105.512 177.162L105.627 179.647L103.859 179.647L103.995 177.162L101.945 178.603L101.004 177.057L103.274 175.815L101.004 174.572L101.945 172.995L103.995 174.457L103.849 171.93Z" fill="white"/>
<path d="M103.849 158.992L105.616 158.992L105.512 161.498L107.53 160.036L108.472 161.613L106.202 162.856L108.472 164.098L107.53 165.644L105.512 164.213L105.627 166.698L103.859 166.698L103.995 164.213L101.945 165.654L101.004 164.109L103.274 162.866L101.004 161.623L101.945 160.046L103.995 161.508L103.849 158.992Z" fill="white"/>
<path d="M120.697 145.374L118.595 145.374L111.63 138.566C109.8 136.749 108.241 135.83 106.934 135.83C105.846 135.83 104.999 136.164 104.393 136.822C103.786 137.48 103.483 138.294 103.483 139.255C103.483 141.082 104.351 142.398 106.087 143.223L104.822 145.374C103.567 144.769 102.615 143.923 101.977 142.847C101.328 141.772 101.004 140.581 101.004 139.276C101.004 137.657 101.538 136.247 102.604 135.057C103.671 133.856 105.114 133.261 106.913 133.261C108.869 133.261 111.002 134.409 113.303 136.707L118.229 141.636L118.229 132.906L120.718 132.906L120.697 145.374Z" fill="white"/>
<path d="M109.267 121.314C109.538 119.842 110.176 118.63 111.17 117.69C112.164 116.75 113.429 116.281 114.956 116.281C116.838 116.281 118.324 116.928 119.411 118.212C120.499 119.497 121.043 121.063 121.043 122.901C121.043 124.374 120.708 125.679 120.039 126.817C119.369 127.956 118.397 128.77 117.121 129.25L115.845 127.099C117.633 126.525 118.522 125.126 118.522 122.901C118.522 121.711 118.208 120.729 117.581 119.977C116.953 119.225 116.075 118.849 114.956 118.849C113.837 118.849 112.948 119.225 112.32 119.977C111.682 120.729 111.369 121.711 111.369 122.901L111.369 123.559L109.789 124.583L103.734 120.113L103.734 128.697L101.329 128.697L101.318 117.106L103.577 117.116L109.267 121.314Z" fill="white"/>
<path d="M114.59 97.212L116.995 97.212L116.995 99.5616L120.677 99.5616L120.677 102.131L116.995 102.131L116.995 111.989L114.59 111.989L101.318 105.065L101.318 102.308L114.59 109.232L114.59 102.141L109.12 102.141L109.12 99.5721L114.59 99.5721L114.59 97.212Z" fill="white"/>
<path d="M108.869 87.1244C108.869 85.2969 109.403 83.7618 110.48 82.4983C111.557 81.2347 113.042 80.6081 114.945 80.6081C116.828 80.6081 118.313 81.2556 119.401 82.54C120.488 83.8245 121.032 85.3909 121.032 87.2288C121.032 88.7013 120.677 90.0171 119.965 91.1762C119.254 92.3354 118.229 93.1499 116.88 93.6094L115.636 91.4268C116.577 91.1658 117.288 90.675 117.78 89.9335C118.271 89.1921 118.512 88.294 118.512 87.2288C118.512 86.0175 118.198 85.0254 117.571 84.2735C116.943 83.5217 116.065 83.1457 114.945 83.1457C113.826 83.1457 112.937 83.5216 112.31 84.284C111.672 85.0358 111.358 86.007 111.358 87.1871L111.358 92.6487L101.318 91.9594L101.308 81.36L103.713 81.36L103.713 89.6098L108.859 89.944L108.869 87.1244Z" fill="white"/>
<path d="M194.004 85.0991L183.079 85.0991L183.079 85.2397L185.417 88.4653L183.747 88.4653L181.322 85.0903L181.322 83.5259L194.004 83.5259L194.004 85.0991ZM194.004 79.8784L192.914 79.8784L188.274 75.5806C187.688 75.0415 187.204 74.6196 186.824 74.3149C186.437 74.0103 186.088 73.7964 185.778 73.6733C185.467 73.5503 185.127 73.4888 184.758 73.4888L184.741 73.4888C184.295 73.4888 183.897 73.5855 183.545 73.7788C183.194 73.9722 182.915 74.2476 182.71 74.605C182.505 74.9624 182.403 75.3901 182.403 75.8882C182.403 76.3921 182.508 76.8374 182.719 77.2241C182.93 77.605 183.223 77.9009 183.598 78.1118C183.967 78.3228 184.398 78.4282 184.89 78.4282L184.908 78.437L184.899 79.9487L184.89 79.9663C184.14 79.9605 183.475 79.7788 182.895 79.4214C182.309 79.064 181.852 78.5718 181.524 77.9448C181.19 77.312 181.023 76.5913 181.023 75.7827C181.023 75.0444 181.178 74.3794 181.489 73.7876C181.793 73.1958 182.212 72.73 182.745 72.3901C183.279 72.0444 183.888 71.8716 184.574 71.8716L184.591 71.8716C185.072 71.8716 185.535 71.9565 185.98 72.1265C186.425 72.2905 186.92 72.5835 187.465 73.0054C188.004 73.4272 188.669 74.022 189.46 74.7896L192.853 78.0767L192.115 77.6812L192.853 77.6812L192.58 78.0767L192.58 71.6606L194.004 71.6606L194.004 79.8784ZM180.794 64.9722L197.168 68.9624L197.168 70.4302L180.794 66.4399L180.794 64.9722ZM194.004 63.5659L192.914 63.5659L188.274 59.2681C187.688 58.729 187.204 58.3071 186.824 58.0024C186.437 57.6978 186.088 57.4839 185.778 57.3608C185.467 57.2378 185.127 57.1763 184.758 57.1763L184.741 57.1763C184.295 57.1763 183.897 57.273 183.545 57.4663C183.194 57.6597 182.915 57.9351 182.71 58.2925C182.505 58.6499 182.403 59.0776 182.403 59.5757C182.403 60.0796 182.508 60.5249 182.719 60.9116C182.93 61.2925 183.223 61.5884 183.598 61.7993C183.967 62.0103 184.398 62.1157 184.89 62.1157L184.908 62.1245L184.899 63.6362L184.89 63.6538C184.14 63.648 183.475 63.4663 182.895 63.1089C182.309 62.7515 181.852 62.2593 181.524 61.6323C181.19 60.9995 181.023 60.2788 181.023 59.4702C181.023 58.7319 181.178 58.0669 181.489 57.4751C181.793 56.8833 182.212 56.4175 182.745 56.0776C183.279 55.7319 183.888 55.5591 184.574 55.5591L184.591 55.5591C185.072 55.5591 185.535 55.644 185.98 55.814C186.425 55.978 186.92 56.271 187.465 56.6929C188.004 57.1147 188.669 57.7095 189.46 58.4771L192.853 61.7642L192.115 61.3687L192.853 61.3687L192.58 61.7642L192.58 55.3481L194.004 55.3481L194.004 63.5659ZM194.004 47.1831L191.376 47.1831L191.376 53.3706L189.935 53.3706C189.361 53.0249 188.781 52.6733 188.195 52.3159C187.603 51.9526 187.014 51.5894 186.428 51.2261C185.836 50.8569 185.253 50.4878 184.679 50.1187C184.099 49.7495 183.528 49.3833 182.965 49.02C182.397 48.6509 181.849 48.2876 181.322 47.9302L181.322 45.6362L189.961 45.6362L189.961 43.8345L191.376 43.8345L191.376 45.6362L194.004 45.6362L194.004 47.1831ZM189.97 51.7534L189.97 47.1743L182.781 47.1743L182.781 47.2798C183.214 47.5669 183.662 47.8599 184.125 48.1587C184.582 48.4575 185.051 48.7622 185.532 49.0728C186.012 49.3774 186.495 49.6821 186.982 49.9868C187.468 50.2915 187.954 50.5933 188.441 50.8921C188.921 51.1909 189.396 51.478 189.865 51.7534L189.97 51.7534Z" fill="white"/>
<path d="M166.004 88.5298L157.549 88.5298L157.549 83.2915L158.498 83.2915L158.498 87.4751L161.211 87.4751L161.211 83.5083L162.149 83.5083L162.149 87.4751L165.055 87.4751L165.055 83.2915L166.004 83.2915L166.004 88.5298ZM166.004 82.0142L162.846 79.8521L159.688 82.0376L159.688 80.8364L162.037 79.3364L162.037 79.2427L159.688 77.7603L159.688 76.6177L162.805 78.7622L166.004 76.5884L166.004 77.7837L163.619 79.2778L163.619 79.3716L166.004 80.8716L166.004 82.0142ZM166.004 75.1938L159.688 75.1938L159.688 74.1743L166.004 74.1743L166.004 75.1938ZM158.469 74.6782C158.469 74.8696 158.401 75.0356 158.264 75.1763C158.123 75.313 157.957 75.3813 157.766 75.3813C157.571 75.3813 157.405 75.313 157.268 75.1763C157.131 75.0356 157.063 74.8696 157.063 74.6782C157.063 74.4829 157.131 74.3169 157.268 74.1802C157.405 74.0435 157.571 73.9751 157.766 73.9751C157.957 73.9751 158.123 74.0435 158.264 74.1802C158.401 74.3169 158.469 74.4829 158.469 74.6782ZM168.114 72.2524L159.688 72.2524L159.688 71.2329L160.696 71.2329L160.696 71.1392C160.461 71.0103 160.262 70.8481 160.098 70.6528C159.93 70.4575 159.801 70.2349 159.711 69.9849C159.621 69.7349 159.576 69.4634 159.576 69.1704C159.576 68.6353 159.713 68.1704 159.987 67.7759C160.256 67.3774 160.635 67.0688 161.123 66.8501C161.612 66.6313 162.184 66.522 162.84 66.522L162.852 66.522C163.512 66.522 164.086 66.6313 164.575 66.8501C165.063 67.0688 165.442 67.3774 165.711 67.7759C165.981 68.1704 166.116 68.6353 166.116 69.1704C166.116 69.4595 166.071 69.7329 165.981 69.9907C165.887 70.2446 165.758 70.4712 165.594 70.6704C165.43 70.8657 165.235 71.022 165.008 71.1392L165.008 71.2329L168.114 71.2329L168.114 72.2524ZM165.213 69.4048C165.213 69.0181 165.119 68.688 164.932 68.4146C164.741 68.1411 164.469 67.9321 164.118 67.7876C163.762 67.6392 163.34 67.5649 162.852 67.5649L162.84 67.5649C162.348 67.5649 161.926 67.6392 161.575 67.7876C161.223 67.9321 160.953 68.1411 160.766 68.4146C160.575 68.688 160.479 69.0181 160.479 69.4048C160.479 69.7876 160.575 70.1177 160.766 70.395C160.957 70.6724 161.229 70.8853 161.58 71.0337C161.932 71.1821 162.352 71.2563 162.84 71.2563L162.852 71.2563C163.336 71.2563 163.756 71.1821 164.112 71.0337C164.463 70.8853 164.735 70.6724 164.926 70.395C165.118 70.1177 165.213 69.7876 165.213 69.4048ZM166.004 64.9282L159.688 64.9282L159.688 63.9087L160.625 63.9087L160.625 63.8149C160.293 63.6938 160.035 63.4888 159.852 63.1997C159.668 62.9106 159.576 62.5532 159.576 62.1274C159.576 62.0298 159.582 61.9341 159.594 61.8403C159.602 61.7427 159.61 61.6685 159.618 61.6177L160.608 61.6177C160.588 61.7231 160.575 61.8267 160.567 61.9282C160.555 62.0259 160.549 62.1313 160.549 62.2446C160.549 62.5688 160.614 62.856 160.743 63.106C160.871 63.356 161.051 63.5532 161.282 63.6978C161.512 63.8384 161.782 63.9087 162.09 63.9087L166.004 63.9087L166.004 64.9282ZM168.219 59.8188C168.219 59.8853 168.215 59.9595 168.207 60.0415C168.203 60.1235 168.196 60.1997 168.184 60.27L167.346 60.27C167.358 60.2075 167.366 60.1392 167.369 60.0649C167.373 59.9907 167.375 59.9185 167.375 59.8481C167.375 59.5591 167.301 59.3228 167.153 59.1392C167.004 58.9517 166.748 58.8013 166.385 58.688L166.01 58.5708L159.688 60.9087L159.688 59.8188L165.524 57.8735L164.885 58.2778L164.885 57.7974L165.524 58.2017L159.688 56.2622L159.688 55.1899L166.391 57.6567C166.864 57.8325 167.233 58.0161 167.498 58.2075C167.764 58.395 167.95 58.6177 168.055 58.8755C168.164 59.1294 168.219 59.4438 168.219 59.8188ZM166.004 50.3384L157.549 50.3384L157.549 47.438C157.549 46.6021 157.717 45.8872 158.053 45.2935C158.385 44.6958 158.866 44.2388 159.494 43.9224C160.123 43.606 160.881 43.4478 161.768 43.4478L161.78 43.4478C162.666 43.4478 163.426 43.606 164.059 43.9224C164.688 44.2388 165.17 44.6938 165.506 45.2876C165.838 45.8813 166.004 46.5981 166.004 47.438L166.004 50.3384ZM165.055 49.2837L165.055 47.5083C165.055 46.8794 164.926 46.3423 164.668 45.897C164.41 45.4517 164.037 45.1118 163.549 44.8774C163.061 44.6431 162.475 44.5259 161.791 44.5259L161.78 44.5259C161.092 44.5259 160.504 44.645 160.016 44.8833C159.524 45.1177 159.149 45.4575 158.891 45.9028C158.629 46.3481 158.498 46.8833 158.498 47.5083L158.498 49.2837L165.055 49.2837ZM166.116 40.0142C166.116 40.4126 166.039 40.772 165.887 41.0923C165.735 41.4087 165.518 41.6606 165.237 41.8481C164.955 42.0317 164.623 42.1235 164.241 42.1235L164.229 42.1235C163.666 42.1235 163.227 41.9243 162.91 41.5259C162.59 41.1235 162.409 40.5552 162.366 39.8208L162.225 37.5005L163.039 37.5005L163.18 39.6978C163.207 40.1782 163.307 40.5298 163.479 40.7524C163.651 40.9712 163.893 41.0806 164.205 41.0806L164.217 41.0806C164.537 41.0806 164.787 40.9595 164.967 40.7173C165.143 40.4751 165.231 40.1704 165.231 39.8032C165.231 39.4556 165.162 39.147 165.026 38.8774C164.885 38.6079 164.696 38.397 164.457 38.2446C164.219 38.0884 163.95 38.0103 163.649 38.0103L161.68 38.0103C161.289 38.0103 160.993 38.1294 160.789 38.3677C160.582 38.6021 160.479 38.9556 160.479 39.4282C160.479 39.8071 160.547 40.1177 160.684 40.3599C160.817 40.6021 161.006 40.7642 161.252 40.8462L161.27 40.8521L161.27 41.8716L161.235 41.8657C160.903 41.811 160.614 41.6743 160.368 41.4556C160.118 41.2329 159.924 40.9458 159.787 40.5942C159.647 40.2427 159.576 39.8423 159.576 39.3931C159.576 38.8774 159.66 38.4419 159.828 38.0864C159.996 37.7271 160.239 37.4556 160.555 37.272C160.868 37.0845 161.243 36.9907 161.68 36.9907L166.004 36.9907L166.004 38.0103L165.073 38.0103L165.073 38.104C165.295 38.2368 165.485 38.3989 165.641 38.5903C165.797 38.7778 165.916 38.9907 165.998 39.229C166.076 39.4673 166.116 39.729 166.116 40.0142ZM166.051 32.8833C166.051 33.5317 165.92 34.0024 165.659 34.2954C165.397 34.5845 164.965 34.729 164.364 34.729L160.532 34.729L160.532 35.7251L159.688 35.7251L159.688 34.729L158.053 34.729L158.053 33.6743L159.688 33.6743L159.688 32.2915L160.532 32.2915L160.532 33.6743L164.106 33.6743C164.477 33.6743 164.744 33.604 164.909 33.4634C165.069 33.3228 165.149 33.0884 165.149 32.7603C165.149 32.6704 165.147 32.5942 165.143 32.5317C165.139 32.4653 165.133 32.3853 165.125 32.2915L165.993 32.2915C166.008 32.3892 166.022 32.4868 166.034 32.5845C166.045 32.6821 166.051 32.7817 166.051 32.8833ZM166.116 28.272C166.116 28.8735 165.983 29.3911 165.717 29.8247C165.452 30.2544 165.077 30.5864 164.592 30.8208C164.104 31.0513 163.53 31.1665 162.869 31.1665L162.864 31.1665C162.211 31.1665 161.639 31.0513 161.147 30.8208C160.655 30.5864 160.27 30.2563 159.993 29.8306C159.715 29.4048 159.577 28.9067 159.577 28.3364C159.577 27.7622 159.709 27.27 159.975 26.8599C160.241 26.4458 160.612 26.1294 161.088 25.9106C161.561 25.688 162.112 25.5767 162.741 25.5767L163.139 25.5767L163.139 30.6392L162.325 30.6392L162.325 26.0981L163.069 26.6021L162.664 26.6021C162.168 26.6021 161.76 26.6763 161.44 26.8247C161.119 26.9731 160.881 27.1782 160.725 27.4399C160.565 27.7017 160.485 28.0024 160.485 28.3423C160.485 28.6821 160.569 28.9868 160.737 29.2563C160.901 29.522 161.145 29.7329 161.469 29.8892C161.793 30.0454 162.192 30.1235 162.664 30.1235L163.069 30.1235C163.518 30.1235 163.903 30.0474 164.223 29.895C164.539 29.7427 164.784 29.5259 164.955 29.2446C165.123 28.9634 165.207 28.6313 165.207 28.2485C165.207 27.9634 165.168 27.7153 165.09 27.5044C165.012 27.2935 164.912 27.1196 164.791 26.9829C164.67 26.8462 164.547 26.7505 164.422 26.6958L164.369 26.6724L164.369 25.6528L164.416 25.6646C164.631 25.7192 164.84 25.8169 165.043 25.9575C165.243 26.0942 165.424 26.272 165.588 26.4907C165.748 26.7095 165.877 26.9692 165.975 27.27C166.069 27.5669 166.116 27.9009 166.116 28.272Z" fill="white"/>
<path d="M194.004 343.061L181.322 343.061L181.322 340.802L192.097 340.802L192.097 334.984L194.004 334.984L194.004 343.061ZM194.198 329.078C194.198 330.033 193.998 330.856 193.6 331.547C193.196 332.233 192.621 332.763 191.877 333.138C191.133 333.507 190.245 333.692 189.214 333.692L189.197 333.692C188.171 333.692 187.286 333.504 186.542 333.129C185.798 332.754 185.227 332.224 184.828 331.539C184.424 330.847 184.222 330.027 184.222 329.078C184.222 328.123 184.421 327.302 184.82 326.617C185.218 325.925 185.789 325.392 186.534 325.017C187.278 324.642 188.165 324.455 189.197 324.455L189.214 324.455C190.245 324.455 191.133 324.642 191.877 325.017C192.621 325.386 193.196 325.917 193.6 326.608C193.998 327.293 194.198 328.117 194.198 329.078ZM192.422 329.078C192.422 328.568 192.296 328.137 192.044 327.786C191.786 327.434 191.42 327.165 190.946 326.977C190.465 326.79 189.888 326.696 189.214 326.696L189.197 326.696C188.523 326.696 187.949 326.79 187.474 326.977C186.993 327.165 186.627 327.437 186.375 327.794C186.123 328.146 185.997 328.574 185.997 329.078C185.997 329.582 186.123 330.009 186.375 330.361C186.627 330.712 186.993 330.985 187.474 331.178C187.949 331.366 188.523 331.459 189.197 331.459L189.214 331.459C189.894 331.459 190.474 331.366 190.954 331.178C191.429 330.991 191.792 330.721 192.044 330.37C192.296 330.012 192.422 329.582 192.422 329.078ZM194.004 322.205L180.706 322.205L180.706 320.016L194.004 320.016L194.004 322.205ZM194.162 314.664C194.162 315.273 194.045 315.815 193.811 316.29C193.576 316.764 193.245 317.139 192.818 317.415C192.384 317.684 191.877 317.819 191.297 317.819L191.28 317.819C190.418 317.819 189.744 317.505 189.258 316.878C188.766 316.246 188.485 315.346 188.414 314.18L188.203 310.629L189.645 310.629L189.856 313.873C189.891 314.482 190.02 314.933 190.242 315.226C190.465 315.519 190.773 315.666 191.165 315.666L191.183 315.666C191.593 315.666 191.912 315.51 192.141 315.2C192.369 314.889 192.484 314.491 192.484 314.004C192.484 313.565 192.396 313.172 192.22 312.827C192.044 312.481 191.807 312.208 191.508 312.009C191.203 311.81 190.861 311.71 190.48 311.71L187.456 311.71C186.976 311.71 186.607 311.863 186.349 312.167C186.091 312.472 185.962 312.92 185.962 313.512C185.962 314.016 186.05 314.426 186.226 314.743C186.402 315.059 186.648 315.273 186.964 315.384L186.999 315.393L186.999 317.458L186.929 317.45C186.384 317.374 185.909 317.163 185.505 316.817C185.101 316.465 184.787 316 184.565 315.419C184.336 314.839 184.222 314.168 184.222 313.407C184.222 312.586 184.351 311.889 184.609 311.315C184.867 310.735 185.236 310.295 185.716 309.997C186.197 309.698 186.774 309.548 187.448 309.548L194.004 309.548L194.004 311.71L192.677 311.71L192.677 311.86C192.988 312.036 193.254 312.264 193.477 312.545C193.7 312.821 193.869 313.137 193.987 313.495C194.104 313.852 194.162 314.242 194.162 314.664ZM194.004 301.981L181.322 301.981L181.322 296.866C181.322 295.958 181.483 295.178 181.805 294.528C182.127 293.877 182.581 293.379 183.167 293.034C183.753 292.682 184.451 292.506 185.259 292.506L185.277 292.506C186.115 292.506 186.859 292.717 187.509 293.139C188.154 293.561 188.614 294.147 188.889 294.897L194.004 292.128L194.004 294.712L189.232 297.2C189.232 297.217 189.232 297.238 189.232 297.261C189.232 297.279 189.232 297.296 189.232 297.314L189.232 299.722L194.004 299.722L194.004 301.981ZM187.483 299.722L187.483 297.094C187.483 296.379 187.295 295.823 186.92 295.424C186.539 295.026 186.009 294.827 185.329 294.827L185.312 294.827C184.644 294.827 184.117 295.035 183.73 295.451C183.343 295.861 183.15 296.426 183.15 297.147L183.15 299.722L187.483 299.722ZM194.198 286.169C194.198 287.125 193.998 287.948 193.6 288.639C193.196 289.325 192.621 289.855 191.877 290.23C191.133 290.599 190.245 290.784 189.214 290.784L189.197 290.784C188.171 290.784 187.286 290.596 186.542 290.221C185.798 289.846 185.227 289.316 184.828 288.63C184.424 287.939 184.222 287.119 184.222 286.169C184.222 285.214 184.421 284.394 184.82 283.708C185.218 283.017 185.789 282.484 186.534 282.109C187.278 281.734 188.165 281.546 189.197 281.546L189.214 281.546C190.245 281.546 191.133 281.734 191.877 282.109C192.621 282.478 193.196 283.008 193.6 283.7C193.998 284.385 194.198 285.208 194.198 286.169ZM192.422 286.169C192.422 285.66 192.296 285.229 192.044 284.877C191.786 284.526 191.42 284.256 190.946 284.069C190.465 283.881 189.888 283.788 189.214 283.788L189.197 283.788C188.523 283.788 187.949 283.881 187.474 284.069C186.993 284.256 186.627 284.529 186.375 284.886C186.123 285.238 185.997 285.666 185.997 286.169C185.997 286.673 186.123 287.101 186.375 287.453C186.627 287.804 186.993 288.077 187.474 288.27C187.949 288.458 188.523 288.551 189.197 288.551L189.214 288.551C189.894 288.551 190.474 288.458 190.954 288.27C191.429 288.083 191.792 287.813 192.044 287.461C192.296 287.104 192.422 286.673 192.422 286.169ZM194.198 275.754C194.198 276.563 194.08 277.263 193.846 277.855C193.612 278.441 193.289 278.904 192.879 279.244C192.463 279.583 191.986 279.783 191.447 279.841L191.42 279.85L191.42 277.679L191.438 277.67C191.778 277.559 192.053 277.342 192.264 277.02C192.475 276.692 192.58 276.258 192.58 275.719C192.58 275.35 192.531 275.031 192.431 274.761C192.326 274.486 192.182 274.269 192 274.111C191.819 273.953 191.608 273.874 191.368 273.874L191.359 273.874C191.077 273.874 190.843 273.988 190.656 274.216C190.462 274.445 190.304 274.82 190.181 275.341L189.838 276.906C189.633 277.814 189.314 278.491 188.88 278.936C188.441 279.375 187.867 279.595 187.158 279.595L187.149 279.595C186.569 279.595 186.059 279.434 185.619 279.112C185.18 278.784 184.837 278.33 184.591 277.75C184.345 277.169 184.222 276.504 184.222 275.754C184.222 274.975 184.342 274.304 184.582 273.742C184.817 273.179 185.139 272.74 185.549 272.423C185.959 272.107 186.425 271.925 186.947 271.878L186.973 271.878L186.973 273.944L186.947 273.944C186.636 274.02 186.375 274.213 186.164 274.524C185.948 274.834 185.839 275.248 185.839 275.763C185.839 276.085 185.889 276.373 185.989 276.625C186.082 276.876 186.22 277.076 186.402 277.222C186.577 277.363 186.785 277.433 187.026 277.433L187.034 277.433C187.316 277.433 187.547 277.325 187.729 277.108C187.91 276.885 188.06 276.513 188.177 275.992L188.52 274.445C188.731 273.501 189.044 272.804 189.46 272.353C189.876 271.902 190.436 271.676 191.139 271.676L191.148 271.676C191.757 271.676 192.293 271.852 192.756 272.204C193.213 272.555 193.568 273.039 193.82 273.654C194.072 274.263 194.198 274.963 194.198 275.754ZM194.198 265.392C194.198 266.341 193.995 267.159 193.591 267.844C193.187 268.524 192.616 269.048 191.877 269.417C191.133 269.787 190.251 269.971 189.232 269.971L189.223 269.971C188.215 269.971 187.339 269.79 186.595 269.426C185.845 269.057 185.262 268.536 184.846 267.862C184.43 267.188 184.222 266.397 184.222 265.489C184.222 264.581 184.424 263.798 184.828 263.142C185.227 262.48 185.786 261.97 186.507 261.613C187.228 261.255 188.072 261.077 189.038 261.077L189.759 261.077L189.759 268.873L188.291 268.873L188.291 262.149L189.662 263.186L188.792 263.186C188.154 263.186 187.623 263.283 187.201 263.476C186.78 263.669 186.463 263.939 186.252 264.285C186.041 264.625 185.936 265.017 185.936 265.462C185.936 265.914 186.047 266.315 186.27 266.667C186.487 267.012 186.809 267.288 187.237 267.493C187.659 267.692 188.177 267.792 188.792 267.792L189.671 267.792C190.257 267.792 190.761 267.692 191.183 267.493C191.605 267.293 191.927 267.012 192.15 266.649C192.372 266.28 192.484 265.843 192.484 265.339C192.484 264.947 192.428 264.61 192.317 264.329C192.2 264.047 192.062 263.819 191.904 263.643C191.74 263.461 191.581 263.338 191.429 263.274L191.368 263.248L191.368 261.173L191.455 261.191C191.766 261.267 192.082 261.408 192.405 261.613C192.721 261.812 193.017 262.084 193.292 262.43C193.562 262.77 193.782 263.186 193.951 263.678C194.116 264.17 194.198 264.742 194.198 265.392Z" fill="white"/>
<path d="M166.203 340.125C166.203 340.891 166.024 341.553 165.664 342.112C165.305 342.67 164.795 343.102 164.135 343.407C163.475 343.708 162.692 343.858 161.785 343.858L161.774 343.858C160.864 343.858 160.078 343.708 159.418 343.407C158.758 343.102 158.248 342.672 157.889 342.118C157.53 341.559 157.35 340.897 157.35 340.131C157.35 339.538 157.467 338.999 157.701 338.514C157.932 338.026 158.254 337.624 158.668 337.307C159.078 336.991 159.553 336.792 160.092 336.709L160.104 336.715L160.104 337.776L160.092 337.782C159.729 337.875 159.416 338.034 159.155 338.256C158.889 338.479 158.684 338.75 158.539 339.071C158.395 339.387 158.323 339.741 158.323 340.131C158.323 340.67 158.463 341.139 158.744 341.538C159.026 341.932 159.424 342.237 159.94 342.452C160.455 342.667 161.067 342.774 161.774 342.774L161.785 342.774C162.489 342.774 163.098 342.667 163.614 342.452C164.129 342.237 164.528 341.932 164.809 341.538C165.09 341.139 165.231 340.668 165.231 340.125C165.231 339.731 165.168 339.374 165.043 339.053C164.914 338.733 164.733 338.463 164.498 338.245C164.26 338.026 163.979 337.874 163.655 337.788L163.643 337.776L163.643 336.709L163.655 336.709C164.17 336.803 164.619 337.006 165.002 337.319C165.381 337.631 165.676 338.028 165.887 338.508C166.098 338.985 166.203 339.524 166.203 340.125ZM166.116 333.334C166.116 333.733 166.039 334.092 165.887 334.413C165.735 334.729 165.518 334.981 165.237 335.168C164.955 335.352 164.623 335.444 164.241 335.444L164.229 335.444C163.666 335.444 163.227 335.245 162.91 334.846C162.59 334.444 162.409 333.875 162.366 333.141L162.225 330.821L163.039 330.821L163.18 333.018C163.207 333.499 163.307 333.85 163.479 334.073C163.651 334.292 163.893 334.401 164.205 334.401L164.217 334.401C164.537 334.401 164.787 334.28 164.967 334.038C165.143 333.795 165.231 333.491 165.231 333.124C165.231 332.776 165.162 332.467 165.026 332.198C164.885 331.928 164.696 331.717 164.457 331.565C164.219 331.409 163.95 331.331 163.649 331.331L161.68 331.331C161.289 331.331 160.992 331.45 160.789 331.688C160.582 331.922 160.479 332.276 160.479 332.749C160.479 333.127 160.547 333.438 160.684 333.68C160.817 333.922 161.006 334.084 161.252 334.167L161.27 334.172L161.27 335.192L161.235 335.186C160.903 335.131 160.614 334.995 160.367 334.776C160.117 334.553 159.924 334.266 159.787 333.915C159.647 333.563 159.576 333.163 159.576 332.713C159.576 332.198 159.66 331.762 159.828 331.407C159.996 331.047 160.239 330.776 160.555 330.592C160.867 330.405 161.242 330.311 161.68 330.311L166.004 330.311L166.004 331.331L165.073 331.331L165.073 331.424C165.295 331.557 165.485 331.719 165.641 331.911C165.797 332.098 165.916 332.311 165.998 332.549C166.076 332.788 166.116 333.049 166.116 333.334ZM166.004 328.448L159.688 328.448L159.688 327.428L160.625 327.428L160.625 327.334C160.293 327.213 160.035 327.008 159.852 326.719C159.668 326.43 159.576 326.073 159.576 325.647C159.576 325.549 159.582 325.454 159.594 325.36C159.602 325.262 159.61 325.188 159.617 325.137L160.608 325.137C160.588 325.243 160.575 325.346 160.567 325.448C160.555 325.545 160.549 325.651 160.549 325.764C160.549 326.088 160.614 326.375 160.742 326.625C160.871 326.875 161.051 327.073 161.282 327.217C161.512 327.358 161.782 327.428 162.09 327.428L166.004 327.428L166.004 328.448ZM166.116 321.721C166.116 322.252 165.981 322.717 165.711 323.116C165.442 323.514 165.063 323.823 164.575 324.042C164.082 324.26 163.508 324.37 162.852 324.37L162.84 324.37C162.18 324.37 161.606 324.26 161.117 324.042C160.629 323.823 160.25 323.516 159.981 323.122C159.711 322.723 159.576 322.256 159.576 321.721C159.576 321.288 159.678 320.895 159.881 320.543C160.08 320.188 160.348 319.924 160.684 319.752L160.684 319.659L157.18 319.659L157.18 318.639L166.004 318.639L166.004 319.659L164.996 319.659L164.996 319.752C165.348 319.944 165.623 320.209 165.823 320.549C166.018 320.889 166.116 321.28 166.116 321.721ZM165.213 321.487C165.213 321.104 165.117 320.774 164.926 320.497C164.735 320.219 164.463 320.006 164.112 319.858C163.756 319.709 163.336 319.635 162.852 319.635L162.84 319.635C162.352 319.635 161.932 319.709 161.58 319.858C161.229 320.006 160.957 320.219 160.766 320.497C160.575 320.774 160.479 321.104 160.479 321.487C160.479 321.87 160.575 322.2 160.766 322.477C160.953 322.75 161.223 322.961 161.575 323.11C161.926 323.254 162.348 323.327 162.84 323.327L162.852 323.327C163.34 323.327 163.762 323.254 164.117 323.11C164.469 322.961 164.741 322.75 164.932 322.477C165.119 322.2 165.213 321.87 165.213 321.487ZM166.004 313.178L157.549 313.178L157.549 312.124L161.205 312.124L161.205 307.483L157.549 307.483L157.549 306.428L166.004 306.428L166.004 307.483L162.155 307.483L162.155 312.124L166.004 312.124L166.004 313.178ZM166.116 301.805C166.116 302.403 165.985 302.92 165.723 303.358C165.457 303.792 165.08 304.127 164.592 304.366C164.104 304.6 163.524 304.717 162.852 304.717L162.84 304.717C162.164 304.717 161.582 304.6 161.094 304.366C160.606 304.127 160.231 303.792 159.969 303.358C159.707 302.92 159.576 302.403 159.576 301.805C159.576 301.204 159.707 300.686 159.969 300.252C160.231 299.819 160.606 299.485 161.094 299.25C161.582 299.012 162.164 298.893 162.84 298.893L162.852 298.893C163.524 298.893 164.104 299.012 164.592 299.25C165.08 299.485 165.457 299.819 165.723 300.252C165.985 300.686 166.116 301.204 166.116 301.805ZM165.213 301.805C165.213 301.407 165.119 301.069 164.932 300.792C164.744 300.514 164.475 300.303 164.123 300.159C163.772 300.01 163.348 299.936 162.852 299.936L162.84 299.936C162.34 299.936 161.914 300.01 161.563 300.159C161.211 300.303 160.944 300.514 160.76 300.792C160.573 301.069 160.479 301.407 160.479 301.805C160.479 302.204 160.573 302.542 160.76 302.819C160.944 303.096 161.211 303.309 161.563 303.458C161.914 303.602 162.34 303.674 162.84 303.674L162.852 303.674C163.348 303.674 163.772 303.602 164.123 303.458C164.475 303.309 164.744 303.096 164.932 302.819C165.119 302.542 165.213 302.204 165.213 301.805ZM166.004 297.252L157.18 297.252L157.18 296.233L166.004 296.233L166.004 297.252ZM166.116 291.944C166.116 292.475 165.981 292.94 165.711 293.338C165.442 293.737 165.063 294.045 164.575 294.264C164.082 294.483 163.508 294.592 162.852 294.592L162.84 294.592C162.18 294.592 161.606 294.483 161.117 294.264C160.629 294.045 160.25 293.739 159.981 293.344C159.711 292.946 159.576 292.479 159.576 291.944C159.576 291.51 159.678 291.118 159.881 290.766C160.08 290.411 160.348 290.147 160.684 289.975L160.684 289.881L157.18 289.881L157.18 288.862L166.004 288.862L166.004 289.881L164.996 289.881L164.996 289.975C165.348 290.167 165.623 290.432 165.823 290.772C166.018 291.112 166.116 291.502 166.116 291.944ZM165.213 291.709C165.213 291.327 165.117 290.997 164.926 290.719C164.735 290.442 164.463 290.229 164.112 290.081C163.756 289.932 163.336 289.858 162.852 289.858L162.84 289.858C162.352 289.858 161.932 289.932 161.58 290.081C161.229 290.229 160.957 290.442 160.766 290.719C160.575 290.997 160.479 291.327 160.479 291.709C160.479 292.092 160.575 292.422 160.766 292.7C160.953 292.973 161.223 293.184 161.575 293.333C161.926 293.477 162.348 293.549 162.84 293.549L162.852 293.549C163.34 293.549 163.762 293.477 164.117 293.333C164.469 293.184 164.741 292.973 164.932 292.7C165.119 292.422 165.213 292.092 165.213 291.709ZM166.116 284.327C166.116 284.928 165.983 285.446 165.717 285.879C165.451 286.309 165.076 286.641 164.592 286.875C164.104 287.106 163.53 287.221 162.869 287.221L162.864 287.221C162.211 287.221 161.639 287.106 161.147 286.875C160.655 286.641 160.27 286.311 159.993 285.885C159.715 285.459 159.576 284.961 159.576 284.391C159.576 283.817 159.709 283.325 159.975 282.915C160.241 282.5 160.612 282.184 161.088 281.965C161.561 281.743 162.112 281.631 162.741 281.631L163.139 281.631L163.139 286.694L162.325 286.694L162.325 282.153L163.069 282.657L162.664 282.657C162.168 282.657 161.76 282.731 161.44 282.879C161.119 283.028 160.881 283.233 160.725 283.495C160.565 283.756 160.485 284.057 160.485 284.397C160.485 284.737 160.569 285.042 160.737 285.311C160.901 285.577 161.145 285.788 161.469 285.944C161.793 286.1 162.192 286.178 162.664 286.178L163.069 286.178C163.518 286.178 163.903 286.102 164.223 285.95C164.539 285.797 164.784 285.581 164.955 285.299C165.123 285.018 165.207 284.686 165.207 284.303C165.207 284.018 165.168 283.77 165.09 283.559C165.012 283.348 164.912 283.174 164.791 283.038C164.67 282.901 164.547 282.805 164.422 282.75L164.369 282.727L164.369 281.708L164.416 281.719C164.631 281.774 164.84 281.872 165.043 282.012C165.243 282.149 165.424 282.327 165.588 282.545C165.748 282.764 165.877 283.024 165.975 283.325C166.069 283.622 166.116 283.956 166.116 284.327ZM166.004 280.049L159.688 280.049L159.688 279.03L160.625 279.03L160.625 278.936C160.293 278.815 160.035 278.61 159.852 278.321C159.668 278.032 159.576 277.674 159.576 277.249C159.576 277.151 159.582 277.055 159.594 276.961C159.602 276.864 159.61 276.79 159.618 276.739L160.608 276.739C160.588 276.844 160.575 276.948 160.567 277.049C160.555 277.147 160.549 277.252 160.549 277.366C160.549 277.69 160.614 277.977 160.743 278.227C160.871 278.477 161.051 278.674 161.282 278.819C161.512 278.959 161.782 279.03 162.09 279.03L166.004 279.03L166.004 280.049ZM166.004 272.104L159.688 272.104L159.688 271.084L160.637 271.084L160.637 270.991C160.301 270.831 160.041 270.6 159.858 270.299C159.67 269.999 159.576 269.616 159.576 269.151C159.576 268.44 159.78 267.895 160.186 267.516C160.588 267.133 161.164 266.942 161.914 266.942L166.004 266.942L166.004 267.961L162.16 267.961C161.59 267.961 161.168 268.083 160.895 268.325C160.618 268.563 160.479 268.934 160.479 269.438C160.479 269.774 160.551 270.065 160.696 270.311C160.84 270.557 161.045 270.749 161.311 270.885C161.576 271.018 161.895 271.084 162.266 271.084L166.004 271.084L166.004 272.104ZM166.116 263.362C166.116 263.76 166.039 264.12 165.887 264.44C165.735 264.756 165.518 265.008 165.237 265.196C164.955 265.379 164.623 265.471 164.241 265.471L164.229 265.471C163.666 265.471 163.227 265.272 162.91 264.874C162.59 264.471 162.409 263.903 162.366 263.168L162.225 260.848L163.039 260.848L163.18 263.045C163.207 263.526 163.307 263.877 163.479 264.1C163.651 264.319 163.893 264.428 164.205 264.428L164.217 264.428C164.537 264.428 164.787 264.307 164.967 264.065C165.143 263.823 165.231 263.518 165.231 263.151C165.231 262.803 165.162 262.495 165.026 262.225C164.885 261.956 164.696 261.745 164.457 261.592C164.219 261.436 163.95 261.358 163.649 261.358L161.68 261.358C161.289 261.358 160.993 261.477 160.789 261.715C160.582 261.95 160.479 262.303 160.479 262.776C160.479 263.155 160.547 263.465 160.684 263.708C160.817 263.95 161.006 264.112 161.252 264.194L161.27 264.2L161.27 265.219L161.235 265.213C160.903 265.159 160.614 265.022 160.368 264.803C160.118 264.581 159.924 264.293 159.787 263.942C159.647 263.59 159.576 263.19 159.576 262.741C159.576 262.225 159.66 261.79 159.828 261.434C159.996 261.075 160.239 260.803 160.555 260.62C160.868 260.432 161.243 260.338 161.68 260.338L166.004 260.338L166.004 261.358L165.073 261.358L165.073 261.452C165.295 261.584 165.485 261.747 165.641 261.938C165.797 262.125 165.916 262.338 165.998 262.577C166.076 262.815 166.116 263.077 166.116 263.362ZM166.004 258.475L159.688 258.475L159.688 257.456L160.649 257.456L160.649 257.362C160.309 257.221 160.045 257.006 159.858 256.717C159.67 256.424 159.576 256.071 159.576 255.657C159.576 255.372 159.623 255.116 159.717 254.889C159.811 254.663 159.942 254.467 160.11 254.303C160.274 254.139 160.465 254.008 160.684 253.911L160.684 253.817C160.461 253.704 160.268 253.551 160.104 253.36C159.936 253.168 159.807 252.948 159.717 252.698C159.623 252.444 159.576 252.172 159.576 251.883C159.576 251.454 159.657 251.09 159.817 250.793C159.977 250.493 160.211 250.264 160.52 250.108C160.825 249.952 161.198 249.874 161.639 249.874L166.004 249.874L166.004 250.893L161.873 250.893C161.409 250.893 161.061 251.002 160.83 251.221C160.596 251.436 160.479 251.766 160.479 252.211C160.479 252.504 160.545 252.76 160.678 252.979C160.811 253.198 160.989 253.368 161.211 253.489C161.43 253.61 161.674 253.67 161.944 253.67L166.004 253.67L166.004 254.69L161.715 254.69C161.34 254.69 161.041 254.809 160.819 255.047C160.592 255.286 160.479 255.604 160.479 256.002C160.479 256.276 160.551 256.524 160.696 256.747C160.84 256.965 161.035 257.139 161.282 257.268C161.524 257.393 161.793 257.456 162.09 257.456L166.004 257.456L166.004 258.475ZM166.116 245.456C166.116 246.057 165.983 246.575 165.717 247.008C165.451 247.438 165.076 247.77 164.592 248.004C164.104 248.235 163.53 248.35 162.869 248.35L162.864 248.35C162.211 248.35 161.639 248.235 161.147 248.004C160.655 247.77 160.27 247.44 159.993 247.014C159.715 246.588 159.576 246.09 159.576 245.52C159.576 244.946 159.709 244.454 159.975 244.043C160.241 243.629 160.612 243.313 161.088 243.094C161.561 242.872 162.112 242.76 162.741 242.76L163.139 242.76L163.139 247.823L162.325 247.823L162.325 243.282L163.069 243.786L162.664 243.786C162.168 243.786 161.76 243.86 161.44 244.008C161.119 244.157 160.881 244.362 160.725 244.624C160.565 244.885 160.485 245.186 160.485 245.526C160.485 245.866 160.569 246.17 160.737 246.44C160.901 246.706 161.145 246.917 161.469 247.073C161.793 247.229 162.192 247.307 162.664 247.307L163.069 247.307C163.518 247.307 163.903 247.231 164.223 247.079C164.539 246.926 164.784 246.709 164.955 246.428C165.123 246.147 165.207 245.815 165.207 245.432C165.207 245.147 165.168 244.899 165.09 244.688C165.012 244.477 164.912 244.303 164.791 244.167C164.67 244.03 164.547 243.934 164.422 243.879L164.369 243.856L164.369 242.836L164.416 242.848C164.631 242.903 164.84 243 165.043 243.141C165.243 243.278 165.424 243.456 165.588 243.674C165.748 243.893 165.877 244.153 165.975 244.454C166.069 244.75 166.116 245.084 166.116 245.456Z" fill="white"/>
</g>
<defs>
<linearGradient id="paint0_linear_534_137" x1="169.306" y1="335.147" x2="169.182" y2="108.031" gradientUnits="userSpaceOnUse">
<stop stop-color="#02CAFD"/>
<stop offset="1" stop-color="#83F8A6"/>
</linearGradient>
<linearGradient id="paint1_linear_534_137" x1="86.3914" y1="351.619" x2="86.3764" y2="249.449" gradientUnits="userSpaceOnUse">
<stop stop-color="#02CAFD"/>
<stop offset="1" stop-color="#83F8A6"/>
</linearGradient>
<linearGradient id="paint2_linear_534_137" x1="18.2925" y1="259.202" x2="18.236" y2="169.229" gradientUnits="userSpaceOnUse">
<stop stop-color="#02CAFD"/>
<stop offset="1" stop-color="#83F8A6"/>
</linearGradient>
<linearGradient id="paint3_linear_534_137" x1="89.8849" y1="147.895" x2="89.8538" y2="-1.36216" gradientUnits="userSpaceOnUse">
<stop stop-color="#02CAFD"/>
<stop offset="1" stop-color="#83F8A6"/>
</linearGradient>
<clipPath id="clip0_534_137">
<rect x="222.004" y="0.60791" width="350" height="222" rx="16" transform="rotate(90 222.004 0.60791)" fill="white"/>
</clipPath>
</defs>
</svg>
