<svg width="409" height="228" viewBox="0 0 409 228" fill="none" xmlns="http://www.w3.org/2000/svg">
<path d="M39 16C39 7.16344 46.1634 0 55 0H409V64H55C46.1634 64 39 56.8366 39 48V16Z" fill="#202020"/>
<path d="M39.5 16C39.5 7.43959 46.4396 0.5 55 0.5H408.5V63.5H55C46.4396 63.5 39.5 56.5604 39.5 48V16Z" stroke="white" stroke-opacity="0.01"/>
<path d="M39.5 16C39.5 7.43959 46.4396 0.5 55 0.5H408.5V63.5H55C46.4396 63.5 39.5 56.5604 39.5 48V16Z" stroke="url(#paint0_radial_2_776)" stroke-opacity="0.12"/>
<rect x="55" y="12" width="40" height="40" rx="8" fill="#2B4089"/>
<path d="M84 26.375C84 29.0674 79.9706 31.25 75 31.25C70.0294 31.25 66 29.0674 66 26.375C66 23.6826 70.0294 21.5 75 21.5C79.9706 21.5 84 23.6826 84 26.375Z" fill="white"/>
<path d="M75 32.75C77.6852 32.75 80.1905 32.1637 82.0784 31.1411C82.7684 30.7673 83.4248 30.3043 83.9747 29.7567C83.9915 29.8783 84 30.0011 84 30.125C84 32.8174 79.9706 35 75 35C70.0294 35 66 32.8174 66 30.125C66 30.0011 66.0085 29.8783 66.0253 29.7567C66.5752 30.3043 67.2316 30.7673 67.9216 31.1411C69.8095 32.1637 72.3148 32.75 75 32.75Z" fill="white"/>
<path d="M75 36.5C77.6852 36.5 80.1905 35.9137 82.0784 34.8911C82.7684 34.5173 83.4248 34.0543 83.9747 33.5067C83.9915 33.6283 84 33.7511 84 33.875C84 36.5674 79.9706 38.75 75 38.75C70.0294 38.75 66 36.5674 66 33.875C66 33.7511 66.0085 33.6283 66.0253 33.5067C66.5752 34.0543 67.2316 34.5173 67.9216 34.8911C69.8095 35.9137 72.3148 36.5 75 36.5Z" fill="white"/>
<path d="M75 40.25C77.6852 40.25 80.1905 39.6637 82.0784 38.6411C82.7684 38.2673 83.4248 37.8043 83.9747 37.2567C83.9915 37.3783 84 37.5011 84 37.625C84 40.3174 79.9706 42.5 75 42.5C70.0294 42.5 66 40.3174 66 37.625C66 37.5011 66.0085 37.3783 66.0253 37.2567C66.5752 37.8043 67.2316 38.2673 67.9216 38.6411C69.8095 39.6637 72.3148 40.25 75 40.25Z" fill="white"/>
<path d="M118.5 39.3223C117.185 39.3223 116.049 39.0228 115.092 38.4238C114.135 37.8249 113.396 36.9753 112.875 35.875C112.354 34.7747 112.094 33.4694 112.094 31.959V31.9492C112.094 30.4323 112.354 29.127 112.875 28.0332C113.396 26.9329 114.132 26.0833 115.082 25.4844C116.039 24.8854 117.175 24.5859 118.49 24.5859C119.525 24.5859 120.463 24.791 121.303 25.2012C122.143 25.6048 122.829 26.1647 123.363 26.8809C123.897 27.5905 124.229 28.4108 124.359 29.3418V29.4102H122.182L122.162 29.332C122.019 28.7591 121.775 28.2643 121.43 27.8477C121.091 27.431 120.671 27.1087 120.17 26.8809C119.675 26.6465 119.115 26.5293 118.49 26.5293C117.644 26.5293 116.908 26.7507 116.283 27.1934C115.665 27.6361 115.186 28.2611 114.848 29.0684C114.509 29.8757 114.34 30.8327 114.34 31.9395V31.959C114.34 33.0658 114.509 34.026 114.848 34.8398C115.186 35.6471 115.668 36.2721 116.293 36.7148C116.918 37.1576 117.654 37.3789 118.5 37.3789C119.125 37.3789 119.685 37.2747 120.18 37.0664C120.681 36.8516 121.101 36.5488 121.439 36.1582C121.785 35.7676 122.025 35.2988 122.162 34.752L122.182 34.7031H124.359V34.7617C124.223 35.6732 123.887 36.4707 123.354 37.1543C122.826 37.8379 122.146 38.3717 121.312 38.7559C120.486 39.1335 119.548 39.3223 118.5 39.3223ZM126.781 39V28.4727H128.91V30.1133H129.047C129.229 29.5339 129.551 29.0846 130.014 28.7656C130.476 28.4466 131.046 28.2871 131.723 28.2871C131.892 28.2871 132.055 28.2969 132.211 28.3164C132.374 28.3359 132.504 28.3555 132.602 28.375V30.3379C132.439 30.2988 132.266 30.2695 132.084 30.25C131.902 30.224 131.71 30.2109 131.508 30.2109C130.987 30.2109 130.531 30.3151 130.141 30.5234C129.75 30.7253 129.447 31.015 129.232 31.3926C129.018 31.7637 128.91 32.2031 128.91 32.7109V39H126.781ZM135.58 42.6523C135.43 42.6523 135.274 42.6458 135.111 42.6328C134.949 42.6263 134.799 42.6133 134.662 42.5938V40.9336C134.766 40.9466 134.88 40.9564 135.004 40.9629C135.128 40.9759 135.251 40.9824 135.375 40.9824C135.87 40.9824 136.267 40.8717 136.566 40.6504C136.872 40.4355 137.107 40.0645 137.27 39.5371L137.436 39.0098L133.607 28.4727H135.902L138.832 37.8574L138.236 36.9199H138.988L138.402 37.8574L141.322 28.4727H143.559L139.643 39.4199C139.35 40.2337 139.024 40.875 138.666 41.3438C138.314 41.819 137.888 42.1543 137.387 42.3496C136.892 42.5514 136.29 42.6523 135.58 42.6523ZM145.492 42.5059V28.4727H147.621V30.1621H147.758C147.96 29.7715 148.22 29.4362 148.539 29.1562C148.858 28.8763 149.223 28.6615 149.633 28.5117C150.049 28.362 150.505 28.2871 151 28.2871C151.892 28.2871 152.663 28.5117 153.314 28.9609C153.972 29.4036 154.48 30.0319 154.838 30.8457C155.196 31.6595 155.375 32.6198 155.375 33.7266V33.7461C155.375 34.8594 155.196 35.8229 154.838 36.6367C154.48 37.4505 153.975 38.0788 153.324 38.5215C152.673 38.9642 151.902 39.1855 151.01 39.1855C150.521 39.1855 150.066 39.1107 149.643 38.9609C149.226 38.8047 148.855 38.5866 148.529 38.3066C148.204 38.0267 147.947 37.6947 147.758 37.3105H147.621V42.5059H145.492ZM150.404 37.3691C150.99 37.3691 151.492 37.2227 151.908 36.9297C152.325 36.6367 152.644 36.2201 152.865 35.6797C153.093 35.1393 153.207 34.4948 153.207 33.7461V33.7266C153.207 32.9714 153.093 32.3236 152.865 31.7832C152.644 31.2428 152.325 30.8294 151.908 30.543C151.492 30.25 150.99 30.1035 150.404 30.1035C149.831 30.1035 149.333 30.25 148.91 30.543C148.487 30.8359 148.161 31.2526 147.934 31.793C147.706 32.3333 147.592 32.9779 147.592 33.7266V33.7461C147.592 34.4883 147.706 35.1296 147.934 35.6699C148.168 36.2103 148.493 36.6302 148.91 36.9297C149.333 37.2227 149.831 37.3691 150.404 37.3691ZM161.615 39.0977C160.489 39.0977 159.669 38.873 159.154 38.4238C158.64 37.9746 158.383 37.2422 158.383 36.2266V30.1523H156.771V28.4727H158.383V25.7969H160.551V28.4727H162.748V30.1523H160.551V35.8066C160.551 36.36 160.665 36.7572 160.893 36.998C161.127 37.2389 161.495 37.3594 161.996 37.3594C162.146 37.3594 162.276 37.3561 162.387 37.3496C162.497 37.3366 162.618 37.3268 162.748 37.3203V39C162.592 39.026 162.416 39.0488 162.221 39.0684C162.025 39.0879 161.824 39.0977 161.615 39.0977ZM169.369 39.2051C168.347 39.2051 167.462 38.987 166.713 38.5508C165.964 38.1081 165.388 37.4798 164.984 36.666C164.581 35.8457 164.379 34.8724 164.379 33.7461V33.7266C164.379 32.5938 164.581 31.6204 164.984 30.8066C165.395 29.9928 165.971 29.3678 166.713 28.9316C167.462 28.4889 168.344 28.2676 169.359 28.2676C170.388 28.2676 171.273 28.4889 172.016 28.9316C172.758 29.3678 173.331 29.9928 173.734 30.8066C174.145 31.6204 174.35 32.5938 174.35 33.7266V33.7461C174.35 34.8724 174.148 35.8457 173.744 36.666C173.34 37.4798 172.764 38.1081 172.016 38.5508C171.273 38.987 170.391 39.2051 169.369 39.2051ZM169.369 37.4277C169.962 37.4277 170.466 37.2812 170.883 36.9883C171.299 36.6953 171.618 36.2754 171.84 35.7285C172.068 35.1816 172.182 34.5208 172.182 33.7461V33.7266C172.182 32.9453 172.068 32.2812 171.84 31.7344C171.618 31.1875 171.296 30.7708 170.873 30.4844C170.456 30.1914 169.952 30.0449 169.359 30.0449C168.773 30.0449 168.269 30.1914 167.846 30.4844C167.429 30.7708 167.107 31.1875 166.879 31.7344C166.658 32.2812 166.547 32.9453 166.547 33.7266V33.7461C166.547 34.5208 166.658 35.1849 166.879 35.7383C167.107 36.2852 167.429 36.7051 167.846 36.998C168.269 37.2845 168.777 37.4277 169.369 37.4277ZM181.117 39.2051C180.095 39.2051 179.213 38.9837 178.471 38.541C177.729 38.0918 177.156 37.457 176.752 36.6367C176.355 35.8164 176.156 34.8431 176.156 33.7168V33.6973C176.156 32.584 176.355 31.6204 176.752 30.8066C177.156 29.9928 177.729 29.3678 178.471 28.9316C179.213 28.4889 180.092 28.2676 181.107 28.2676C181.999 28.2676 182.764 28.4271 183.402 28.7461C184.047 29.0586 184.558 29.485 184.936 30.0254C185.313 30.5658 185.544 31.1745 185.629 31.8516L185.639 31.9102H183.598L183.588 31.8711C183.471 31.3503 183.204 30.9173 182.787 30.5723C182.37 30.2207 181.814 30.0449 181.117 30.0449C180.538 30.0449 180.04 30.1914 179.623 30.4844C179.206 30.7773 178.884 31.1973 178.656 31.7441C178.435 32.291 178.324 32.9421 178.324 33.6973V33.7168C178.324 34.4915 178.438 35.1556 178.666 35.709C178.894 36.2624 179.216 36.6888 179.633 36.9883C180.049 37.2812 180.544 37.4277 181.117 37.4277C181.781 37.4277 182.318 37.2747 182.729 36.9688C183.139 36.6628 183.422 36.2266 183.578 35.6602L183.598 35.6016H185.629L185.619 35.6797C185.502 36.3698 185.255 36.9785 184.877 37.5059C184.499 38.0332 183.995 38.4499 183.363 38.7559C182.738 39.0553 181.99 39.2051 181.117 39.2051ZM191.342 39.2051C190.561 39.2051 189.9 39.0521 189.359 38.7461C188.819 38.4336 188.412 37.9844 188.139 37.3984C187.872 36.8125 187.738 36.1094 187.738 35.2891V28.4727H189.857V34.8105C189.857 35.6634 190.03 36.3047 190.375 36.7344C190.727 37.1641 191.286 37.3789 192.055 37.3789C192.602 37.3789 193.064 37.2682 193.441 37.0469C193.826 36.819 194.115 36.5 194.311 36.0898C194.512 35.6797 194.613 35.1979 194.613 34.6445V28.4727H196.732V39H194.613V37.4082H194.477C194.216 37.9681 193.822 38.4076 193.295 38.7266C192.768 39.0456 192.117 39.2051 191.342 39.2051ZM199.555 39V28.4727H201.684V30.1133H201.82C202.003 29.5339 202.325 29.0846 202.787 28.7656C203.249 28.4466 203.819 28.2871 204.496 28.2871C204.665 28.2871 204.828 28.2969 204.984 28.3164C205.147 28.3359 205.277 28.3555 205.375 28.375V30.3379C205.212 30.2988 205.04 30.2695 204.857 30.25C204.675 30.224 204.483 30.2109 204.281 30.2109C203.76 30.2109 203.305 30.3151 202.914 30.5234C202.523 30.7253 202.221 31.015 202.006 31.3926C201.791 31.7637 201.684 32.2031 201.684 32.7109V39H199.555ZM207.348 39V28.4727H209.477V30.1133H209.613C209.796 29.5339 210.118 29.0846 210.58 28.7656C211.042 28.4466 211.612 28.2871 212.289 28.2871C212.458 28.2871 212.621 28.2969 212.777 28.3164C212.94 28.3359 213.07 28.3555 213.168 28.375V30.3379C213.005 30.2988 212.833 30.2695 212.65 30.25C212.468 30.224 212.276 30.2109 212.074 30.2109C211.553 30.2109 211.098 30.3151 210.707 30.5234C210.316 30.7253 210.014 31.015 209.799 31.3926C209.584 31.7637 209.477 32.2031 209.477 32.7109V39H207.348ZM219.154 39.2051C218.126 39.2051 217.24 38.9837 216.498 38.541C215.762 38.0983 215.196 37.4701 214.799 36.6562C214.402 35.8424 214.203 34.8789 214.203 33.7656V33.7559C214.203 32.6556 214.402 31.6953 214.799 30.875C215.196 30.0547 215.756 29.4167 216.479 28.9609C217.208 28.4987 218.064 28.2676 219.047 28.2676C220.03 28.2676 220.876 28.4889 221.586 28.9316C222.296 29.3743 222.839 29.9928 223.217 30.7871C223.601 31.5749 223.793 32.4961 223.793 33.5508V34.293H215.277V32.7793H222.748L221.723 34.1758V33.3457C221.723 32.5905 221.609 31.9688 221.381 31.4805C221.153 30.9857 220.837 30.6178 220.434 30.377C220.036 30.1296 219.577 30.0059 219.057 30.0059C218.536 30.0059 218.07 30.1328 217.66 30.3867C217.25 30.6406 216.924 31.0182 216.684 31.5195C216.449 32.0143 216.332 32.623 216.332 33.3457V34.1855C216.332 34.8757 216.449 35.4648 216.684 35.9531C216.918 36.4414 217.25 36.8158 217.68 37.0762C218.109 37.3366 218.617 37.4668 219.203 37.4668C219.646 37.4668 220.03 37.4017 220.355 37.2715C220.688 37.1413 220.958 36.9818 221.166 36.793C221.374 36.5977 221.521 36.3991 221.605 36.1973L221.635 36.1191H223.676L223.656 36.207C223.572 36.5716 223.415 36.9329 223.188 37.291C222.96 37.6426 222.657 37.9648 222.279 38.2578C221.908 38.5443 221.459 38.7754 220.932 38.9512C220.411 39.1204 219.818 39.2051 219.154 39.2051ZM226.098 39V28.4727H228.227V30.0645H228.363C228.624 29.5111 229.008 29.0749 229.516 28.7559C230.03 28.4303 230.674 28.2676 231.449 28.2676C232.628 28.2676 233.529 28.6094 234.154 29.293C234.786 29.9766 235.102 30.9401 235.102 32.1836V39H232.982V32.6621C232.982 31.8027 232.797 31.1582 232.426 30.7285C232.055 30.2988 231.485 30.084 230.717 30.084C230.209 30.084 229.766 30.1979 229.389 30.4258C229.018 30.6471 228.731 30.9629 228.529 31.373C228.327 31.7832 228.227 32.2682 228.227 32.8281V39H226.098ZM242.289 39.2051C241.267 39.2051 240.385 38.9837 239.643 38.541C238.9 38.0918 238.327 37.457 237.924 36.6367C237.527 35.8164 237.328 34.8431 237.328 33.7168V33.6973C237.328 32.584 237.527 31.6204 237.924 30.8066C238.327 29.9928 238.9 29.3678 239.643 28.9316C240.385 28.4889 241.264 28.2676 242.279 28.2676C243.171 28.2676 243.936 28.4271 244.574 28.7461C245.219 29.0586 245.73 29.485 246.107 30.0254C246.485 30.5658 246.716 31.1745 246.801 31.8516L246.811 31.9102H244.77L244.76 31.8711C244.643 31.3503 244.376 30.9173 243.959 30.5723C243.542 30.2207 242.986 30.0449 242.289 30.0449C241.71 30.0449 241.212 30.1914 240.795 30.4844C240.378 30.7773 240.056 31.1973 239.828 31.7441C239.607 32.291 239.496 32.9421 239.496 33.6973V33.7168C239.496 34.4915 239.61 35.1556 239.838 35.709C240.066 36.2624 240.388 36.6888 240.805 36.9883C241.221 37.2812 241.716 37.4277 242.289 37.4277C242.953 37.4277 243.49 37.2747 243.9 36.9688C244.311 36.6628 244.594 36.2266 244.75 35.6602L244.77 35.6016H246.801L246.791 35.6797C246.674 36.3698 246.426 36.9785 246.049 37.5059C245.671 38.0332 245.167 38.4499 244.535 38.7559C243.91 39.0553 243.161 39.2051 242.289 39.2051ZM250.072 42.6523C249.923 42.6523 249.766 42.6458 249.604 42.6328C249.441 42.6263 249.291 42.6133 249.154 42.5938V40.9336C249.258 40.9466 249.372 40.9564 249.496 40.9629C249.62 40.9759 249.743 40.9824 249.867 40.9824C250.362 40.9824 250.759 40.8717 251.059 40.6504C251.365 40.4355 251.599 40.0645 251.762 39.5371L251.928 39.0098L248.1 28.4727H250.395L253.324 37.8574L252.729 36.9199H253.48L252.895 37.8574L255.814 28.4727H258.051L254.135 39.4199C253.842 40.2337 253.516 40.875 253.158 41.3438C252.807 41.819 252.38 42.1543 251.879 42.3496C251.384 42.5514 250.782 42.6523 250.072 42.6523Z" fill="white"/>
<path d="M0 92C0 83.1634 7.16344 76 16 76H409V152H16C7.16343 152 0 144.837 0 136V92Z" fill="#202020"/>
<path d="M0.5 92C0.5 83.4396 7.43959 76.5 16 76.5H408.5V151.5H16C7.43958 151.5 0.5 144.56 0.5 136V92Z" stroke="white" stroke-opacity="0.01"/>
<path d="M0.5 92C0.5 83.4396 7.43959 76.5 16 76.5H408.5V151.5H16C7.43958 151.5 0.5 144.56 0.5 136V92Z" stroke="url(#paint1_radial_2_776)" stroke-opacity="0.12"/>
<rect x="16" y="92" width="44" height="44" rx="8" fill="#2B892E"/>
<path d="M38 109.5C36.7574 109.5 35.75 110.507 35.75 111.75C35.75 112.993 36.7574 114 38 114C39.2426 114 40.25 112.993 40.25 111.75C40.25 110.507 39.2426 109.5 38 109.5Z" fill="white"/>
<path fill-rule="evenodd" clip-rule="evenodd" d="M27.5 106.875C27.5 105.839 28.3395 105 29.375 105H46.625C47.6605 105 48.5 105.839 48.5 106.875V116.625C48.5 117.661 47.6605 118.5 46.625 118.5H29.375C28.3395 118.5 27.5 117.661 27.5 116.625V106.875ZM34.25 111.75C34.25 109.679 35.9289 108 38 108C40.0711 108 41.75 109.679 41.75 111.75C41.75 113.821 40.0711 115.5 38 115.5C35.9289 115.5 34.25 113.821 34.25 111.75ZM44.75 111C44.3358 111 44 111.336 44 111.75V111.758C44 112.172 44.3358 112.508 44.75 112.508H44.7575C45.1717 112.508 45.5075 112.172 45.5075 111.758V111.75C45.5075 111.336 45.1717 111 44.7575 111H44.75ZM30.5 111.75C30.5 111.336 30.8358 111 31.25 111H31.2575C31.6717 111 32.0075 111.336 32.0075 111.75V111.758C32.0075 112.172 31.6717 112.508 31.2575 112.508H31.25C30.8358 112.508 30.5 112.172 30.5 111.758V111.75Z" fill="white"/>
<path d="M28.25 120C27.8358 120 27.5 120.336 27.5 120.75C27.5 121.164 27.8358 121.5 28.25 121.5C33.65 121.5 38.8802 122.222 43.8498 123.575C45.0404 123.899 46.25 123.017 46.25 121.755V120.75C46.25 120.336 45.9142 120 45.5 120H28.25Z" fill="white"/>
<path d="M83.418 123.305C82.1523 123.305 81.043 123.113 80.0898 122.73C79.1445 122.34 78.3945 121.789 77.8398 121.078C77.2852 120.359 76.9727 119.508 76.9023 118.523L76.8906 118.359H79.457L79.4805 118.5C79.5586 119.016 79.7734 119.461 80.125 119.836C80.4766 120.211 80.9414 120.504 81.5195 120.715C82.1055 120.918 82.7734 121.02 83.5234 121.02C84.2734 121.02 84.9219 120.914 85.4688 120.703C86.0234 120.484 86.4492 120.18 86.7461 119.789C87.0508 119.398 87.2031 118.941 87.2031 118.418V118.406C87.2031 117.734 86.957 117.195 86.4648 116.789C85.9805 116.383 85.1758 116.059 84.0508 115.816L82.2109 115.43C80.5469 115.07 79.3086 114.5 78.4961 113.719C77.6914 112.938 77.2891 111.926 77.2891 110.684V110.672C77.2969 109.703 77.5625 108.852 78.0859 108.117C78.6094 107.383 79.332 106.812 80.2539 106.406C81.1758 105.992 82.2344 105.785 83.4297 105.785C84.6094 105.785 85.6445 105.984 86.5352 106.383C87.4336 106.781 88.1445 107.34 88.668 108.059C89.1914 108.77 89.4844 109.594 89.5469 110.531L89.5586 110.719H86.9922L86.9805 110.566C86.9023 110.043 86.707 109.598 86.3945 109.23C86.082 108.863 85.6719 108.578 85.1641 108.375C84.6562 108.172 84.0625 108.07 83.3828 108.07C82.6953 108.07 82.0938 108.176 81.5781 108.387C81.0625 108.59 80.6641 108.875 80.3828 109.242C80.1016 109.609 79.9609 110.043 79.9609 110.543V110.555C79.9609 111.188 80.207 111.707 80.6992 112.113C81.1914 112.52 81.9688 112.836 83.0312 113.062L84.8711 113.449C86.6289 113.824 87.9023 114.391 88.6914 115.148C89.4805 115.898 89.875 116.918 89.875 118.207V118.219C89.875 119.258 89.6133 120.16 89.0898 120.926C88.5742 121.684 87.832 122.27 86.8633 122.684C85.9023 123.098 84.7539 123.305 83.418 123.305ZM92.1133 123V110.602H94.668V112.512H94.75C95.0156 111.863 95.4453 111.344 96.0391 110.953C96.6406 110.555 97.3477 110.355 98.1602 110.355C98.7305 110.355 99.2422 110.453 99.6953 110.648C100.156 110.836 100.551 111.109 100.879 111.469C101.207 111.82 101.453 112.254 101.617 112.77H101.699C101.91 112.27 102.203 111.84 102.578 111.48C102.961 111.121 103.402 110.844 103.902 110.648C104.41 110.453 104.957 110.355 105.543 110.355C106.363 110.355 107.074 110.527 107.676 110.871C108.285 111.207 108.754 111.684 109.082 112.301C109.418 112.91 109.586 113.633 109.586 114.469V123H107.031V115.078C107.031 114.266 106.828 113.641 106.422 113.203C106.016 112.766 105.43 112.547 104.664 112.547C104.156 112.547 103.707 112.664 103.316 112.898C102.934 113.125 102.633 113.441 102.414 113.848C102.203 114.246 102.098 114.707 102.098 115.23V123H99.5898V114.891C99.5898 114.164 99.3789 113.594 98.957 113.18C98.5352 112.758 97.9648 112.547 97.2461 112.547C96.7461 112.547 96.3008 112.668 95.9102 112.91C95.5273 113.152 95.2227 113.484 94.9961 113.906C94.7773 114.328 94.668 114.809 94.668 115.348V123H92.1133ZM115.832 123.223C115.02 123.223 114.301 123.066 113.676 122.754C113.051 122.441 112.562 122.004 112.211 121.441C111.867 120.879 111.695 120.227 111.695 119.484V119.461C111.695 118.375 112.098 117.516 112.902 116.883C113.707 116.242 114.844 115.879 116.312 115.793L120.977 115.523V117.305L116.652 117.574C115.871 117.621 115.273 117.805 114.859 118.125C114.453 118.438 114.25 118.859 114.25 119.391V119.414C114.25 119.961 114.457 120.395 114.871 120.715C115.293 121.027 115.844 121.184 116.523 121.184C117.125 121.184 117.664 121.062 118.141 120.82C118.617 120.57 118.992 120.234 119.266 119.812C119.539 119.383 119.676 118.902 119.676 118.371V114.633C119.676 113.953 119.461 113.422 119.031 113.039C118.609 112.656 118 112.465 117.203 112.465C116.477 112.465 115.891 112.617 115.445 112.922C115.008 113.219 114.73 113.609 114.613 114.094L114.59 114.188H112.188L112.199 114.059C112.27 113.355 112.516 112.727 112.938 112.172C113.359 111.609 113.938 111.168 114.672 110.848C115.414 110.52 116.285 110.355 117.285 110.355C118.301 110.355 119.176 110.523 119.91 110.859C120.652 111.195 121.223 111.672 121.621 112.289C122.02 112.906 122.219 113.633 122.219 114.469V123H119.676V121.09H119.605C119.363 121.52 119.051 121.895 118.668 122.215C118.293 122.535 117.863 122.785 117.379 122.965C116.895 123.137 116.379 123.223 115.832 123.223ZM124.879 123V110.602H127.434V112.676H127.516C127.711 111.957 128.062 111.395 128.57 110.988C129.086 110.574 129.711 110.367 130.445 110.367C130.633 110.367 130.809 110.379 130.973 110.402C131.137 110.418 131.27 110.438 131.371 110.461V112.828C131.246 112.781 131.078 112.746 130.867 112.723C130.656 112.691 130.426 112.676 130.176 112.676C129.621 112.676 129.137 112.793 128.723 113.027C128.309 113.262 127.988 113.598 127.762 114.035C127.543 114.473 127.434 114.996 127.434 115.605V123H124.879ZM137.629 123.211C136.379 123.211 135.453 122.938 134.852 122.391C134.25 121.844 133.949 120.957 133.949 119.73V112.617H132.145V110.602H133.949V107.391H136.551V110.602H138.941V112.617H136.551V119.496C136.551 120.137 136.688 120.578 136.961 120.82C137.234 121.062 137.648 121.184 138.203 121.184C138.352 121.184 138.484 121.18 138.602 121.172C138.719 121.156 138.832 121.145 138.941 121.137V123.105C138.777 123.129 138.582 123.152 138.355 123.176C138.129 123.199 137.887 123.211 137.629 123.211ZM147.977 117.223V115.02H152.359C153.5 115.02 154.383 114.727 155.008 114.141C155.633 113.547 155.945 112.727 155.945 111.68V111.656C155.945 110.594 155.633 109.77 155.008 109.184C154.383 108.598 153.5 108.305 152.359 108.305H147.977V106.09H153.016C154.125 106.09 155.098 106.324 155.934 106.793C156.777 107.254 157.438 107.902 157.914 108.738C158.391 109.566 158.629 110.531 158.629 111.633V111.656C158.629 112.758 158.391 113.73 157.914 114.574C157.438 115.41 156.777 116.062 155.934 116.531C155.098 116.992 154.125 117.223 153.016 117.223H147.977ZM146.652 123V106.09H149.289V123H146.652ZM165.648 123.246C164.461 123.246 163.426 122.988 162.543 122.473C161.66 121.949 160.973 121.207 160.48 120.246C159.996 119.277 159.754 118.129 159.754 116.801V116.777C159.754 115.457 159.996 114.316 160.48 113.355C160.973 112.395 161.66 111.656 162.543 111.141C163.426 110.617 164.457 110.355 165.637 110.355C166.824 110.355 167.859 110.617 168.742 111.141C169.625 111.656 170.309 112.395 170.793 113.355C171.285 114.309 171.531 115.449 171.531 116.777V116.801C171.531 118.137 171.285 119.285 170.793 120.246C170.309 121.207 169.625 121.949 168.742 122.473C167.867 122.988 166.836 123.246 165.648 123.246ZM165.66 121.113C166.332 121.113 166.91 120.945 167.395 120.609C167.887 120.266 168.266 119.773 168.531 119.133C168.797 118.492 168.93 117.715 168.93 116.801V116.777C168.93 115.871 168.793 115.098 168.52 114.457C168.254 113.816 167.875 113.328 167.383 112.992C166.891 112.656 166.309 112.488 165.637 112.488C164.98 112.488 164.402 112.66 163.902 113.004C163.41 113.34 163.027 113.828 162.754 114.469C162.488 115.102 162.355 115.871 162.355 116.777V116.801C162.355 117.715 162.488 118.492 162.754 119.133C163.027 119.773 163.41 120.266 163.902 120.609C164.395 120.945 164.98 121.113 165.66 121.113ZM173.676 123V110.602H176.23V112.676H176.312C176.508 111.957 176.859 111.395 177.367 110.988C177.883 110.574 178.508 110.367 179.242 110.367C179.43 110.367 179.605 110.379 179.77 110.402C179.934 110.418 180.066 110.438 180.168 110.461V112.828C180.043 112.781 179.875 112.746 179.664 112.723C179.453 112.691 179.223 112.676 178.973 112.676C178.418 112.676 177.934 112.793 177.52 113.027C177.105 113.262 176.785 113.598 176.559 114.035C176.34 114.473 176.23 114.996 176.23 115.605V123H173.676ZM186.426 123.211C185.176 123.211 184.25 122.938 183.648 122.391C183.047 121.844 182.746 120.957 182.746 119.73V112.617H180.941V110.602H182.746V107.391H185.348V110.602H187.738V112.617H185.348V119.496C185.348 120.137 185.484 120.578 185.758 120.82C186.031 121.062 186.445 121.184 187 121.184C187.148 121.184 187.281 121.18 187.398 121.172C187.516 121.156 187.629 121.145 187.738 121.137V123.105C187.574 123.129 187.379 123.152 187.152 123.176C186.926 123.199 186.684 123.211 186.426 123.211ZM190.75 123V112.617H188.969V110.602H190.75V109.277C190.75 108.074 191.047 107.184 191.641 106.605C192.234 106.02 193.164 105.727 194.43 105.727C194.695 105.727 194.957 105.738 195.215 105.762C195.473 105.777 195.691 105.801 195.871 105.832V107.707C195.746 107.684 195.605 107.668 195.449 107.66C195.293 107.652 195.137 107.648 194.98 107.648C194.387 107.648 193.949 107.793 193.668 108.082C193.387 108.363 193.246 108.785 193.246 109.348V110.602H195.812V112.617H193.293V123H190.75ZM202.328 123.246C201.141 123.246 200.105 122.988 199.223 122.473C198.34 121.949 197.652 121.207 197.16 120.246C196.676 119.277 196.434 118.129 196.434 116.801V116.777C196.434 115.457 196.676 114.316 197.16 113.355C197.652 112.395 198.34 111.656 199.223 111.141C200.105 110.617 201.137 110.355 202.316 110.355C203.504 110.355 204.539 110.617 205.422 111.141C206.305 111.656 206.988 112.395 207.473 113.355C207.965 114.309 208.211 115.449 208.211 116.777V116.801C208.211 118.137 207.965 119.285 207.473 120.246C206.988 121.207 206.305 121.949 205.422 122.473C204.547 122.988 203.516 123.246 202.328 123.246ZM202.34 121.113C203.012 121.113 203.59 120.945 204.074 120.609C204.566 120.266 204.945 119.773 205.211 119.133C205.477 118.492 205.609 117.715 205.609 116.801V116.777C205.609 115.871 205.473 115.098 205.199 114.457C204.934 113.816 204.555 113.328 204.062 112.992C203.57 112.656 202.988 112.488 202.316 112.488C201.66 112.488 201.082 112.66 200.582 113.004C200.09 113.34 199.707 113.828 199.434 114.469C199.168 115.102 199.035 115.871 199.035 116.777V116.801C199.035 117.715 199.168 118.492 199.434 119.133C199.707 119.773 200.09 120.266 200.582 120.609C201.074 120.945 201.66 121.113 202.34 121.113ZM210.461 123V105.938H213.004V123H210.461ZM215.91 123V110.602H218.465V123H215.91ZM217.188 108.633C216.773 108.633 216.418 108.488 216.121 108.199C215.832 107.91 215.688 107.562 215.688 107.156C215.688 106.742 215.832 106.391 216.121 106.102C216.418 105.812 216.773 105.668 217.188 105.668C217.609 105.668 217.965 105.812 218.254 106.102C218.543 106.391 218.688 106.742 218.688 107.156C218.688 107.562 218.543 107.91 218.254 108.199C217.965 108.488 217.609 108.633 217.188 108.633ZM226.586 123.246C225.398 123.246 224.363 122.988 223.48 122.473C222.598 121.949 221.91 121.207 221.418 120.246C220.934 119.277 220.691 118.129 220.691 116.801V116.777C220.691 115.457 220.934 114.316 221.418 113.355C221.91 112.395 222.598 111.656 223.48 111.141C224.363 110.617 225.395 110.355 226.574 110.355C227.762 110.355 228.797 110.617 229.68 111.141C230.562 111.656 231.246 112.395 231.73 113.355C232.223 114.309 232.469 115.449 232.469 116.777V116.801C232.469 118.137 232.223 119.285 231.73 120.246C231.246 121.207 230.562 121.949 229.68 122.473C228.805 122.988 227.773 123.246 226.586 123.246ZM226.598 121.113C227.27 121.113 227.848 120.945 228.332 120.609C228.824 120.266 229.203 119.773 229.469 119.133C229.734 118.492 229.867 117.715 229.867 116.801V116.777C229.867 115.871 229.73 115.098 229.457 114.457C229.191 113.816 228.812 113.328 228.32 112.992C227.828 112.656 227.246 112.488 226.574 112.488C225.918 112.488 225.34 112.66 224.84 113.004C224.348 113.34 223.965 113.828 223.691 114.469C223.426 115.102 223.293 115.871 223.293 116.777V116.801C223.293 117.715 223.426 118.492 223.691 119.133C223.965 119.773 224.348 120.266 224.84 120.609C225.332 120.945 225.918 121.113 226.598 121.113ZM240.098 123V106.09H242.734V123H240.098ZM245.746 123V110.602H248.301V112.477H248.383C248.703 111.836 249.176 111.324 249.801 110.941C250.434 110.551 251.215 110.355 252.145 110.355C253.512 110.355 254.566 110.766 255.309 111.586C256.059 112.406 256.434 113.535 256.434 114.973V123H253.879V115.477C253.879 114.523 253.66 113.797 253.223 113.297C252.785 112.797 252.125 112.547 251.242 112.547C250.648 112.547 250.129 112.68 249.684 112.945C249.246 113.211 248.906 113.586 248.664 114.07C248.422 114.547 248.301 115.109 248.301 115.758V123H245.746ZM262.375 123L257.91 110.602H260.617L263.723 120.504H263.805L266.898 110.602H269.559L265.117 123H262.375ZM276.027 123.246C274.809 123.246 273.762 122.984 272.887 122.461C272.012 121.938 271.34 121.195 270.871 120.234C270.402 119.273 270.168 118.141 270.168 116.836V116.824C270.168 115.535 270.402 114.406 270.871 113.438C271.348 112.461 272.012 111.703 272.863 111.164C273.723 110.625 274.73 110.355 275.887 110.355C277.043 110.355 278.039 110.617 278.875 111.141C279.719 111.656 280.367 112.383 280.82 113.32C281.273 114.25 281.5 115.34 281.5 116.59V117.457H271.445V115.652H280.27L279.016 117.328V116.344C279.016 115.461 278.883 114.734 278.617 114.164C278.352 113.586 277.984 113.156 277.516 112.875C277.055 112.586 276.516 112.441 275.898 112.441C275.289 112.441 274.742 112.59 274.258 112.887C273.781 113.184 273.406 113.625 273.133 114.211C272.859 114.789 272.723 115.5 272.723 116.344V117.328C272.723 118.133 272.859 118.82 273.133 119.391C273.406 119.961 273.793 120.398 274.293 120.703C274.793 121.008 275.387 121.16 276.074 121.16C276.582 121.16 277.027 121.086 277.41 120.938C277.801 120.781 278.121 120.578 278.371 120.328C278.629 120.078 278.809 119.805 278.91 119.508L278.934 119.414H281.371L281.336 119.543C281.234 120.012 281.043 120.469 280.762 120.914C280.488 121.352 280.125 121.75 279.672 122.109C279.219 122.461 278.688 122.738 278.078 122.941C277.469 123.145 276.785 123.246 276.027 123.246ZM288.285 123.246C287.254 123.246 286.367 123.09 285.625 122.777C284.883 122.465 284.297 122.027 283.867 121.465C283.445 120.902 283.191 120.25 283.105 119.508L283.094 119.426H285.625L285.637 119.52C285.762 120.066 286.043 120.496 286.48 120.809C286.918 121.121 287.523 121.277 288.297 121.277C288.812 121.277 289.25 121.211 289.609 121.078C289.977 120.945 290.262 120.758 290.465 120.516C290.668 120.266 290.77 119.973 290.77 119.637V119.625C290.77 119.227 290.633 118.902 290.359 118.652C290.094 118.402 289.621 118.195 288.941 118.031L286.926 117.574C285.754 117.301 284.875 116.879 284.289 116.309C283.711 115.738 283.422 115.004 283.422 114.105V114.094C283.422 113.352 283.621 112.703 284.02 112.148C284.426 111.586 284.988 111.148 285.707 110.836C286.434 110.516 287.273 110.355 288.227 110.355C289.195 110.355 290.031 110.52 290.734 110.848C291.445 111.176 292 111.617 292.398 112.172C292.797 112.727 293.016 113.355 293.055 114.059L293.066 114.176H290.676L290.664 114.094C290.586 113.57 290.336 113.145 289.914 112.816C289.5 112.488 288.934 112.324 288.215 112.324C287.762 112.324 287.363 112.395 287.02 112.535C286.684 112.668 286.422 112.855 286.234 113.098C286.055 113.34 285.965 113.629 285.965 113.965V113.977C285.965 114.359 286.109 114.684 286.398 114.949C286.688 115.207 287.164 115.414 287.828 115.57L289.844 116.027C291.094 116.316 291.988 116.73 292.527 117.27C293.074 117.801 293.348 118.512 293.348 119.402V119.414C293.348 120.172 293.129 120.84 292.691 121.418C292.254 121.988 291.652 122.438 290.887 122.766C290.129 123.086 289.262 123.246 288.285 123.246ZM299.91 123.211C298.66 123.211 297.734 122.938 297.133 122.391C296.531 121.844 296.23 120.957 296.23 119.73V112.617H294.426V110.602H296.23V107.391H298.832V110.602H301.223V112.617H298.832V119.496C298.832 120.137 298.969 120.578 299.242 120.82C299.516 121.062 299.93 121.184 300.484 121.184C300.633 121.184 300.766 121.18 300.883 121.172C301 121.156 301.113 121.145 301.223 121.137V123.105C301.059 123.129 300.863 123.152 300.637 123.176C300.41 123.199 300.168 123.211 299.91 123.211ZM303.543 123V110.602H306.098V123H303.543ZM304.82 108.633C304.406 108.633 304.051 108.488 303.754 108.199C303.465 107.91 303.32 107.562 303.32 107.156C303.32 106.742 303.465 106.391 303.754 106.102C304.051 105.812 304.406 105.668 304.82 105.668C305.242 105.668 305.598 105.812 305.887 106.102C306.176 106.391 306.32 106.742 306.32 107.156C306.32 107.562 306.176 107.91 305.887 108.199C305.598 108.488 305.242 108.633 304.82 108.633ZM308.887 123V110.602H311.441V112.477H311.523C311.844 111.836 312.316 111.324 312.941 110.941C313.574 110.551 314.355 110.355 315.285 110.355C316.652 110.355 317.707 110.766 318.449 111.586C319.199 112.406 319.574 113.535 319.574 114.973V123H317.02V115.477C317.02 114.523 316.801 113.797 316.363 113.297C315.926 112.797 315.266 112.547 314.383 112.547C313.789 112.547 313.27 112.68 312.824 112.945C312.387 113.211 312.047 113.586 311.805 114.07C311.562 114.547 311.441 115.109 311.441 115.758V123H308.887ZM327.613 127.371C326.559 127.371 325.637 127.223 324.848 126.926C324.059 126.629 323.426 126.223 322.949 125.707C322.48 125.199 322.188 124.625 322.07 123.984L322.059 123.891H324.59L324.625 123.973C324.781 124.371 325.117 124.695 325.633 124.945C326.148 125.203 326.809 125.332 327.613 125.332C328.621 125.332 329.398 125.082 329.945 124.582C330.5 124.09 330.777 123.414 330.777 122.555V120.715H330.695C330.453 121.168 330.141 121.559 329.758 121.887C329.375 122.207 328.934 122.457 328.434 122.637C327.941 122.809 327.398 122.895 326.805 122.895C325.766 122.895 324.855 122.641 324.074 122.133C323.301 121.617 322.699 120.891 322.27 119.953C321.848 119.016 321.637 117.918 321.637 116.66V116.648C321.637 115.367 321.852 114.258 322.281 113.32C322.719 112.383 323.324 111.656 324.098 111.141C324.879 110.625 325.797 110.367 326.852 110.367C327.438 110.367 327.973 110.465 328.457 110.66C328.949 110.848 329.383 111.117 329.758 111.469C330.141 111.82 330.453 112.23 330.695 112.699H330.766V110.602H333.32V122.672C333.32 123.617 333.086 124.441 332.617 125.145C332.156 125.848 331.5 126.395 330.648 126.785C329.797 127.176 328.785 127.371 327.613 127.371ZM327.52 120.82C328.176 120.82 328.746 120.652 329.23 120.316C329.723 119.973 330.105 119.488 330.379 118.863C330.652 118.238 330.789 117.512 330.789 116.684V116.672C330.789 115.836 330.652 115.109 330.379 114.492C330.105 113.875 329.723 113.398 329.23 113.062C328.746 112.719 328.176 112.547 327.52 112.547C326.848 112.547 326.266 112.715 325.773 113.051C325.281 113.387 324.902 113.863 324.637 114.48C324.371 115.098 324.238 115.824 324.238 116.66V116.684C324.238 117.527 324.367 118.262 324.625 118.887C324.891 119.504 325.27 119.98 325.762 120.316C326.262 120.652 326.848 120.82 327.52 120.82Z" fill="white"/>
<path d="M39 180C39 171.163 46.1634 164 55 164H409V228H55C46.1634 228 39 220.837 39 212V180Z" fill="#202020"/>
<path d="M39.5 180C39.5 171.44 46.4396 164.5 55 164.5H408.5V227.5H55C46.4396 227.5 39.5 220.56 39.5 212V180Z" stroke="white" stroke-opacity="0.01"/>
<path d="M39.5 180C39.5 171.44 46.4396 164.5 55 164.5H408.5V227.5H55C46.4396 227.5 39.5 220.56 39.5 212V180Z" stroke="url(#paint2_radial_2_776)" stroke-opacity="0.12"/>
<rect x="55" y="176" width="40" height="40" rx="8" fill="#D06604"/>
<path d="M68.625 187.75C67.1753 187.75 66 188.925 66 190.375C66 191.825 67.1753 193 68.625 193H81.375C82.8247 193 84 191.825 84 190.375C84 188.925 82.8247 187.75 81.375 187.75H68.625Z" fill="white"/>
<path d="M66.75 195.25C66.3358 195.25 66 195.586 66 196C66 196.414 66.3358 196.75 66.75 196.75H83.25C83.6642 196.75 84 196.414 84 196C84 195.586 83.6642 195.25 83.25 195.25H66.75Z" fill="white"/>
<path d="M66 199.75C66 199.336 66.3358 199 66.75 199H83.25C83.6642 199 84 199.336 84 199.75C84 200.164 83.6642 200.5 83.25 200.5H66.75C66.3358 200.5 66 200.164 66 199.75Z" fill="white"/>
<path d="M66.75 202.75C66.3358 202.75 66 203.086 66 203.5C66 203.914 66.3358 204.25 66.75 204.25H83.25C83.6642 204.25 84 203.914 84 203.5C84 203.086 83.6642 202.75 83.25 202.75H66.75Z" fill="white"/>
<path d="M117.436 203.322C116.374 203.322 115.45 203.156 114.662 202.824C113.874 202.486 113.249 202.02 112.787 201.428C112.331 200.829 112.071 200.129 112.006 199.328L111.996 199.201H114.154L114.164 199.309C114.216 199.738 114.385 200.109 114.672 200.422C114.965 200.734 115.355 200.979 115.844 201.154C116.339 201.324 116.898 201.408 117.523 201.408C118.129 201.408 118.66 201.317 119.115 201.135C119.577 200.952 119.939 200.695 120.199 200.363C120.46 200.031 120.59 199.647 120.59 199.211V199.201C120.59 198.654 120.385 198.208 119.975 197.863C119.571 197.512 118.9 197.235 117.963 197.033L116.43 196.701C115.01 196.395 113.972 195.913 113.314 195.256C112.657 194.592 112.328 193.742 112.328 192.707V192.697C112.335 191.883 112.556 191.171 112.992 190.559C113.428 189.94 114.031 189.458 114.799 189.113C115.567 188.762 116.449 188.586 117.445 188.586C118.435 188.586 119.301 188.758 120.043 189.104C120.792 189.442 121.381 189.908 121.811 190.5C122.247 191.086 122.491 191.75 122.543 192.492L122.553 192.629H120.424L120.404 192.512C120.339 192.108 120.176 191.757 119.916 191.457C119.662 191.158 119.32 190.923 118.891 190.754C118.467 190.578 117.973 190.493 117.406 190.5C116.853 190.5 116.361 190.585 115.932 190.754C115.502 190.917 115.163 191.154 114.916 191.467C114.675 191.779 114.555 192.154 114.555 192.59V192.6C114.555 193.12 114.753 193.553 115.15 193.898C115.554 194.243 116.208 194.514 117.113 194.709L118.646 195.041C120.124 195.354 121.189 195.822 121.84 196.447C122.491 197.072 122.816 197.912 122.816 198.967V198.977C122.816 199.868 122.595 200.64 122.152 201.291C121.716 201.936 121.094 202.437 120.287 202.795C119.486 203.146 118.536 203.322 117.436 203.322ZM128.744 203.205C127.963 203.205 127.302 203.052 126.762 202.746C126.221 202.434 125.814 201.984 125.541 201.398C125.274 200.812 125.141 200.109 125.141 199.289V192.473H127.26V198.811C127.26 199.663 127.432 200.305 127.777 200.734C128.129 201.164 128.689 201.379 129.457 201.379C130.004 201.379 130.466 201.268 130.844 201.047C131.228 200.819 131.518 200.5 131.713 200.09C131.915 199.68 132.016 199.198 132.016 198.645V192.473H134.135V203H132.016V201.408H131.879C131.618 201.968 131.225 202.408 130.697 202.727C130.17 203.046 129.519 203.205 128.744 203.205ZM140.814 203.205C139.962 203.205 139.223 203.078 138.598 202.824C137.973 202.57 137.475 202.219 137.104 201.77C136.739 201.314 136.524 200.786 136.459 200.188L136.449 200.158H138.568L138.578 200.188C138.708 200.604 138.962 200.939 139.34 201.193C139.717 201.441 140.222 201.564 140.854 201.564C141.29 201.564 141.667 201.506 141.986 201.389C142.312 201.265 142.566 201.096 142.748 200.881C142.93 200.666 143.021 200.415 143.021 200.129V200.109C143.021 199.777 142.891 199.501 142.631 199.279C142.377 199.058 141.951 198.876 141.352 198.732L139.672 198.352C138.676 198.124 137.937 197.772 137.455 197.297C136.973 196.822 136.732 196.2 136.732 195.432V195.422C136.732 194.803 136.905 194.26 137.25 193.791C137.602 193.316 138.087 192.945 138.705 192.678C139.324 192.404 140.03 192.268 140.824 192.268C141.632 192.268 142.335 192.398 142.934 192.658C143.533 192.912 144.005 193.264 144.35 193.713C144.695 194.156 144.896 194.667 144.955 195.246V195.285H142.934V195.256C142.842 194.865 142.615 194.543 142.25 194.289C141.892 194.035 141.413 193.908 140.814 193.908C140.43 193.908 140.092 193.967 139.799 194.084C139.506 194.201 139.275 194.364 139.105 194.572C138.943 194.781 138.861 195.028 138.861 195.314V195.334C138.861 195.66 138.988 195.93 139.242 196.145C139.496 196.359 139.913 196.535 140.492 196.672L142.172 197.062C143.201 197.297 143.956 197.642 144.438 198.098C144.926 198.547 145.17 199.152 145.17 199.914V199.934C145.17 200.585 144.981 201.158 144.604 201.652C144.226 202.141 143.708 202.521 143.051 202.795C142.4 203.068 141.654 203.205 140.814 203.205ZM151.342 203.098C150.215 203.098 149.395 202.873 148.881 202.424C148.367 201.975 148.109 201.242 148.109 200.227V194.152H146.498V192.473H148.109V189.797H150.277V192.473H152.475V194.152H150.277V199.807C150.277 200.36 150.391 200.757 150.619 200.998C150.854 201.239 151.221 201.359 151.723 201.359C151.872 201.359 152.003 201.356 152.113 201.35C152.224 201.337 152.344 201.327 152.475 201.32V203C152.318 203.026 152.143 203.049 151.947 203.068C151.752 203.088 151.55 203.098 151.342 203.098ZM157.67 203.186C156.993 203.186 156.391 203.055 155.863 202.795C155.342 202.535 154.929 202.17 154.623 201.701C154.324 201.226 154.174 200.669 154.174 200.031V200.012C154.174 199.074 154.516 198.339 155.199 197.805C155.883 197.271 156.85 196.968 158.1 196.896L162.006 196.662V198.156L158.383 198.381C157.68 198.42 157.156 198.573 156.811 198.84C156.465 199.107 156.293 199.471 156.293 199.934V199.953C156.293 200.435 156.475 200.812 156.84 201.086C157.204 201.353 157.673 201.486 158.246 201.486C158.76 201.486 159.223 201.382 159.633 201.174C160.043 200.959 160.365 200.673 160.6 200.314C160.834 199.956 160.951 199.549 160.951 199.094V195.822C160.951 195.249 160.769 194.807 160.404 194.494C160.046 194.182 159.519 194.025 158.822 194.025C158.223 194.025 157.738 194.136 157.367 194.357C156.996 194.572 156.752 194.872 156.635 195.256L156.615 195.305H154.584L154.594 195.217C154.672 194.637 154.896 194.126 155.268 193.684C155.645 193.241 156.14 192.896 156.752 192.648C157.37 192.395 158.087 192.268 158.9 192.268C159.779 192.268 160.528 192.411 161.146 192.697C161.771 192.977 162.247 193.381 162.572 193.908C162.898 194.429 163.061 195.054 163.061 195.783V203H160.951V201.467H160.814C160.606 201.825 160.346 202.134 160.033 202.395C159.721 202.648 159.366 202.844 158.969 202.98C158.572 203.117 158.139 203.186 157.67 203.186ZM165.873 203V192.473H167.992V203H165.873ZM166.938 190.656C166.579 190.656 166.27 190.529 166.01 190.275C165.756 190.015 165.629 189.709 165.629 189.357C165.629 188.993 165.756 188.687 166.01 188.439C166.27 188.186 166.579 188.059 166.938 188.059C167.302 188.059 167.611 188.186 167.865 188.439C168.119 188.687 168.246 188.993 168.246 189.357C168.246 189.709 168.119 190.015 167.865 190.275C167.611 190.529 167.302 190.656 166.938 190.656ZM170.863 203V192.473H172.992V194.064H173.129C173.389 193.511 173.773 193.075 174.281 192.756C174.796 192.43 175.44 192.268 176.215 192.268C177.393 192.268 178.295 192.609 178.92 193.293C179.551 193.977 179.867 194.94 179.867 196.184V203H177.748V196.662C177.748 195.803 177.562 195.158 177.191 194.729C176.82 194.299 176.251 194.084 175.482 194.084C174.975 194.084 174.532 194.198 174.154 194.426C173.783 194.647 173.497 194.963 173.295 195.373C173.093 195.783 172.992 196.268 172.992 196.828V203H170.863ZM185.541 203.186C184.864 203.186 184.262 203.055 183.734 202.795C183.214 202.535 182.8 202.17 182.494 201.701C182.195 201.226 182.045 200.669 182.045 200.031V200.012C182.045 199.074 182.387 198.339 183.07 197.805C183.754 197.271 184.721 196.968 185.971 196.896L189.877 196.662V198.156L186.254 198.381C185.551 198.42 185.027 198.573 184.682 198.84C184.337 199.107 184.164 199.471 184.164 199.934V199.953C184.164 200.435 184.346 200.812 184.711 201.086C185.076 201.353 185.544 201.486 186.117 201.486C186.632 201.486 187.094 201.382 187.504 201.174C187.914 200.959 188.236 200.673 188.471 200.314C188.705 199.956 188.822 199.549 188.822 199.094V195.822C188.822 195.249 188.64 194.807 188.275 194.494C187.917 194.182 187.39 194.025 186.693 194.025C186.094 194.025 185.609 194.136 185.238 194.357C184.867 194.572 184.623 194.872 184.506 195.256L184.486 195.305H182.455L182.465 195.217C182.543 194.637 182.768 194.126 183.139 193.684C183.516 193.241 184.011 192.896 184.623 192.648C185.242 192.395 185.958 192.268 186.771 192.268C187.65 192.268 188.399 192.411 189.018 192.697C189.643 192.977 190.118 193.381 190.443 193.908C190.769 194.429 190.932 195.054 190.932 195.783V203H188.822V201.467H188.686C188.477 201.825 188.217 202.134 187.904 202.395C187.592 202.648 187.237 202.844 186.84 202.98C186.443 203.117 186.01 203.186 185.541 203.186ZM199.301 203.186C198.559 203.186 197.908 203.02 197.348 202.688C196.788 202.355 196.355 201.896 196.049 201.311H195.912V203H193.793V188.391H195.912V194.162H196.049C196.335 193.589 196.768 193.133 197.348 192.795C197.927 192.456 198.578 192.287 199.301 192.287C200.193 192.287 200.964 192.508 201.615 192.951C202.273 193.394 202.781 194.022 203.139 194.836C203.497 195.65 203.676 196.613 203.676 197.727V197.746C203.676 198.853 203.493 199.813 203.129 200.627C202.771 201.441 202.263 202.072 201.605 202.521C200.954 202.964 200.186 203.186 199.301 203.186ZM198.705 201.369C199.291 201.369 199.792 201.223 200.209 200.93C200.626 200.637 200.945 200.22 201.166 199.68C201.394 199.139 201.508 198.495 201.508 197.746V197.727C201.508 196.971 201.394 196.327 201.166 195.793C200.945 195.253 200.626 194.836 200.209 194.543C199.792 194.25 199.291 194.104 198.705 194.104C198.132 194.104 197.634 194.25 197.211 194.543C196.788 194.836 196.459 195.253 196.225 195.793C195.997 196.333 195.883 196.978 195.883 197.727V197.746C195.883 198.488 195.997 199.13 196.225 199.67C196.459 200.21 196.788 200.63 197.211 200.93C197.634 201.223 198.132 201.369 198.705 201.369ZM206.078 203V188.391H208.197V203H206.078ZM215.561 203.205C214.532 203.205 213.646 202.984 212.904 202.541C212.169 202.098 211.602 201.47 211.205 200.656C210.808 199.842 210.609 198.879 210.609 197.766V197.756C210.609 196.656 210.808 195.695 211.205 194.875C211.602 194.055 212.162 193.417 212.885 192.961C213.614 192.499 214.47 192.268 215.453 192.268C216.436 192.268 217.283 192.489 217.992 192.932C218.702 193.374 219.245 193.993 219.623 194.787C220.007 195.575 220.199 196.496 220.199 197.551V198.293H211.684V196.779H219.154L218.129 198.176V197.346C218.129 196.59 218.015 195.969 217.787 195.48C217.559 194.986 217.243 194.618 216.84 194.377C216.443 194.13 215.984 194.006 215.463 194.006C214.942 194.006 214.477 194.133 214.066 194.387C213.656 194.641 213.331 195.018 213.09 195.52C212.855 196.014 212.738 196.623 212.738 197.346V198.186C212.738 198.876 212.855 199.465 213.09 199.953C213.324 200.441 213.656 200.816 214.086 201.076C214.516 201.337 215.023 201.467 215.609 201.467C216.052 201.467 216.436 201.402 216.762 201.271C217.094 201.141 217.364 200.982 217.572 200.793C217.781 200.598 217.927 200.399 218.012 200.197L218.041 200.119H220.082L220.062 200.207C219.978 200.572 219.822 200.933 219.594 201.291C219.366 201.643 219.063 201.965 218.686 202.258C218.314 202.544 217.865 202.775 217.338 202.951C216.817 203.12 216.225 203.205 215.561 203.205ZM227.865 203V188.908H230.062V203H227.865ZM233.129 203V192.473H235.258V194.064H235.395C235.655 193.511 236.039 193.075 236.547 192.756C237.061 192.43 237.706 192.268 238.48 192.268C239.659 192.268 240.561 192.609 241.186 193.293C241.817 193.977 242.133 194.94 242.133 196.184V203H240.014V196.662C240.014 195.803 239.828 195.158 239.457 194.729C239.086 194.299 238.516 194.084 237.748 194.084C237.24 194.084 236.798 194.198 236.42 194.426C236.049 194.647 235.762 194.963 235.561 195.373C235.359 195.783 235.258 196.268 235.258 196.828V203H233.129ZM247.494 203L243.686 192.473H245.941L248.568 200.871H248.705L251.322 192.473H253.559L249.76 203H247.494ZM259.506 203.205C258.477 203.205 257.592 202.984 256.85 202.541C256.114 202.098 255.548 201.47 255.15 200.656C254.753 199.842 254.555 198.879 254.555 197.766V197.756C254.555 196.656 254.753 195.695 255.15 194.875C255.548 194.055 256.107 193.417 256.83 192.961C257.559 192.499 258.415 192.268 259.398 192.268C260.382 192.268 261.228 192.489 261.938 192.932C262.647 193.374 263.191 193.993 263.568 194.787C263.952 195.575 264.145 196.496 264.145 197.551V198.293H255.629V196.779H263.1L262.074 198.176V197.346C262.074 196.59 261.96 195.969 261.732 195.48C261.505 194.986 261.189 194.618 260.785 194.377C260.388 194.13 259.929 194.006 259.408 194.006C258.887 194.006 258.422 194.133 258.012 194.387C257.602 194.641 257.276 195.018 257.035 195.52C256.801 196.014 256.684 196.623 256.684 197.346V198.186C256.684 198.876 256.801 199.465 257.035 199.953C257.27 200.441 257.602 200.816 258.031 201.076C258.461 201.337 258.969 201.467 259.555 201.467C259.997 201.467 260.382 201.402 260.707 201.271C261.039 201.141 261.309 200.982 261.518 200.793C261.726 200.598 261.872 200.399 261.957 200.197L261.986 200.119H264.027L264.008 200.207C263.923 200.572 263.767 200.933 263.539 201.291C263.311 201.643 263.008 201.965 262.631 202.258C262.26 202.544 261.811 202.775 261.283 202.951C260.762 203.12 260.17 203.205 259.506 203.205ZM270.307 203.205C269.454 203.205 268.715 203.078 268.09 202.824C267.465 202.57 266.967 202.219 266.596 201.77C266.231 201.314 266.016 200.786 265.951 200.188L265.941 200.158H268.061L268.07 200.188C268.201 200.604 268.454 200.939 268.832 201.193C269.21 201.441 269.714 201.564 270.346 201.564C270.782 201.564 271.16 201.506 271.479 201.389C271.804 201.265 272.058 201.096 272.24 200.881C272.423 200.666 272.514 200.415 272.514 200.129V200.109C272.514 199.777 272.383 199.501 272.123 199.279C271.869 199.058 271.443 198.876 270.844 198.732L269.164 198.352C268.168 198.124 267.429 197.772 266.947 197.297C266.465 196.822 266.225 196.2 266.225 195.432V195.422C266.225 194.803 266.397 194.26 266.742 193.791C267.094 193.316 267.579 192.945 268.197 192.678C268.816 192.404 269.522 192.268 270.316 192.268C271.124 192.268 271.827 192.398 272.426 192.658C273.025 192.912 273.497 193.264 273.842 193.713C274.187 194.156 274.389 194.667 274.447 195.246V195.285H272.426V195.256C272.335 194.865 272.107 194.543 271.742 194.289C271.384 194.035 270.906 193.908 270.307 193.908C269.923 193.908 269.584 193.967 269.291 194.084C268.998 194.201 268.767 194.364 268.598 194.572C268.435 194.781 268.354 195.028 268.354 195.314V195.334C268.354 195.66 268.48 195.93 268.734 196.145C268.988 196.359 269.405 196.535 269.984 196.672L271.664 197.062C272.693 197.297 273.448 197.642 273.93 198.098C274.418 198.547 274.662 199.152 274.662 199.914V199.934C274.662 200.585 274.473 201.158 274.096 201.652C273.718 202.141 273.201 202.521 272.543 202.795C271.892 203.068 271.146 203.205 270.307 203.205ZM280.834 203.098C279.708 203.098 278.887 202.873 278.373 202.424C277.859 201.975 277.602 201.242 277.602 200.227V194.152H275.99V192.473H277.602V189.797H279.77V192.473H281.967V194.152H279.77V199.807C279.77 200.36 279.883 200.757 280.111 200.998C280.346 201.239 280.714 201.359 281.215 201.359C281.365 201.359 281.495 201.356 281.605 201.35C281.716 201.337 281.837 201.327 281.967 201.32V203C281.811 203.026 281.635 203.049 281.439 203.068C281.244 203.088 281.042 203.098 280.834 203.098ZM284.311 203V192.473H286.43V203H284.311ZM285.375 190.656C285.017 190.656 284.708 190.529 284.447 190.275C284.193 190.015 284.066 189.709 284.066 189.357C284.066 188.993 284.193 188.687 284.447 188.439C284.708 188.186 285.017 188.059 285.375 188.059C285.74 188.059 286.049 188.186 286.303 188.439C286.557 188.687 286.684 188.993 286.684 189.357C286.684 189.709 286.557 190.015 286.303 190.275C286.049 190.529 285.74 190.656 285.375 190.656ZM289.301 203V192.473H291.43V194.064H291.566C291.827 193.511 292.211 193.075 292.719 192.756C293.233 192.43 293.878 192.268 294.652 192.268C295.831 192.268 296.732 192.609 297.357 193.293C297.989 193.977 298.305 194.94 298.305 196.184V203H296.186V196.662C296.186 195.803 296 195.158 295.629 194.729C295.258 194.299 294.688 194.084 293.92 194.084C293.412 194.084 292.969 194.198 292.592 194.426C292.221 194.647 291.934 194.963 291.732 195.373C291.531 195.783 291.43 196.268 291.43 196.828V203H289.301ZM305.531 206.711C304.639 206.711 303.865 206.587 303.207 206.34C302.549 206.092 302.025 205.751 301.635 205.314C301.251 204.878 301.013 204.374 300.922 203.801V203.762H303.061L303.08 203.791C303.178 204.149 303.438 204.442 303.861 204.67C304.291 204.898 304.854 205.012 305.551 205.012C306.417 205.012 307.09 204.81 307.572 204.406C308.054 204.009 308.295 203.449 308.295 202.727V200.803H308.158C307.95 201.187 307.683 201.516 307.357 201.789C307.038 202.056 306.671 202.261 306.254 202.404C305.837 202.541 305.385 202.609 304.896 202.609C304.005 202.609 303.23 202.395 302.572 201.965C301.921 201.529 301.417 200.926 301.059 200.158C300.701 199.39 300.521 198.498 300.521 197.482V197.463C300.521 196.441 300.701 195.542 301.059 194.768C301.423 193.986 301.934 193.378 302.592 192.941C303.249 192.505 304.031 192.287 304.936 192.287C305.43 192.287 305.883 192.365 306.293 192.521C306.71 192.678 307.074 192.902 307.387 193.195C307.706 193.482 307.969 193.824 308.178 194.221H308.285V192.473H310.404V202.766C310.404 203.566 310.206 204.26 309.809 204.846C309.411 205.438 308.848 205.897 308.119 206.223C307.39 206.548 306.527 206.711 305.531 206.711ZM305.482 200.861C306.068 200.861 306.573 200.721 306.996 200.441C307.419 200.155 307.745 199.758 307.973 199.25C308.207 198.742 308.324 198.156 308.324 197.492V197.473C308.324 196.802 308.207 196.213 307.973 195.705C307.745 195.197 307.419 194.803 306.996 194.523C306.573 194.237 306.068 194.094 305.482 194.094C304.896 194.094 304.395 194.237 303.979 194.523C303.562 194.803 303.243 195.197 303.021 195.705C302.8 196.213 302.689 196.802 302.689 197.473V197.482C302.689 198.16 302.8 198.752 303.021 199.26C303.243 199.761 303.562 200.155 303.979 200.441C304.395 200.721 304.896 200.861 305.482 200.861Z" fill="white"/>
<defs>
<radialGradient id="paint0_radial_2_776" cx="0" cy="0" r="1" gradientUnits="userSpaceOnUse" gradientTransform="translate(224) rotate(90) scale(40.9244 236.594)">
<stop stop-color="white"/>
<stop offset="1" stop-color="white" stop-opacity="0"/>
</radialGradient>
<radialGradient id="paint1_radial_2_776" cx="0" cy="0" r="1" gradientUnits="userSpaceOnUse" gradientTransform="translate(204.5 76) rotate(90) scale(48.5978 261.533)">
<stop stop-color="white"/>
<stop offset="1" stop-color="white" stop-opacity="0"/>
</radialGradient>
<radialGradient id="paint2_radial_2_776" cx="0" cy="0" r="1" gradientUnits="userSpaceOnUse" gradientTransform="translate(224 164) rotate(90) scale(40.9244 236.594)">
<stop stop-color="white"/>
<stop offset="1" stop-color="white" stop-opacity="0"/>
</radialGradient>
</defs>
</svg>
